<svg width="808" height="774" viewBox="0 0 808 774" fill="none" xmlns="http://www.w3.org/2000/svg">
<style>
   #arrow,#translate_1,#translate_2,#translate_3,#translate_4,#translate_5,#translate_y{transform-origin:center;transform-box:fill-box}#translate_1,#translate_3{animation:translateX 2s linear infinite}#translate_2,#translate_y{animation:translateY 2s linear infinite}#arrow,#translate_4,#translate_5{animation:vibrate 2s linear infinite}@keyframes vibrate{0%{transform:translate(0)}20%{transform:translate(-3px,0)}40%{transform:translate(-3px,0)}60%{transform:translate(3px,0)}80%{transform:translate(3px,0)}100%{transform:translate(0)}}@keyframes translateX{0%,100%{transform:translateX(2px)}50%{transform:translateX(-2px)}}@keyframes translateY{0%,100%{transform:translateY(2px)}50%{transform:translateY(-2px)}}
</style>
<g id="about_us 1" clip-path="url(#clip0_170:270)">
<g id="Group 585">
<g id="translate_y">
<path id="Path 1698" d="M609.401 1.675C511.886 6.731 481.547 91.498 469.358 132.418C449.404 199.418 435.607 232.498 385.458 235.857C333.089 239.378 314.272 194.467 259.049 148.49C194.816 94.944 90.731 98.576 26.783 222.276C-44.855 360.965 35.383 501.116 170.69 604.392C248.031 663.444 325.776 674.82 440.031 650.459C639.215 607.968 765.967 450.318 796.847 268.397C814.4 165.158 770.103 -6.668 609.401 1.675Z" fill="#0071BC"/>
<path id="Path 1699" opacity="0.7" d="M609.401 1.675C511.886 6.731 481.547 91.498 469.358 132.418C449.404 199.418 435.607 232.498 385.458 235.857C333.089 239.378 314.272 194.467 259.049 148.49C194.816 94.944 90.731 98.576 26.783 222.276C-44.855 360.965 35.383 501.116 170.69 604.392C248.031 663.444 325.776 674.82 440.031 650.459C639.215 607.968 765.967 450.318 796.847 268.397C814.4 165.158 770.103 -6.668 609.401 1.675Z" fill="white"/>
</g>
<path id="Rectangle 149" d="M292.296 655.101H206.067V772.806H292.296V655.101Z" fill="#0071BC"/>
<path id="Rectangle 150" d="M292.296 655.101H206.067V772.806H292.296V655.101Z" fill="#0071BC"/>
<path id="Rectangle 151" d="M442.235 491.618H356.006V772.806H442.235V491.618Z" fill="#0071BC"/>
<path id="Rectangle 152" d="M442.235 491.618H356.006V772.806H442.235V491.618Z" fill="#0071BC"/>
<path id="Rectangle 153" d="M595.876 426.355H509.647V772.806H595.876V426.355Z" fill="#0071BC"/>
<path id="Path 1823" d="M509.647 426.355H595.876V772.806H509.647V426.355Z" fill="#0071BC"/>
<path id="Rectangle 155" d="M749.517 312.244H663.288V772.806H749.517V312.244Z" fill="#0071BC"/>
<path id="Path 1822" d="M663.288 312.244H749.517V772.806H663.288V312.244Z" fill="#0071BC"/>
<g id="freepik--Clouds--inject-83">
<g id="translate_1">
<path id="Path 1700" d="M266.454 109.629C266.563 108.845 266.618 108.055 266.617 107.263C266.562 102.797 264.854 98.5094 261.823 95.2291C258.791 91.9488 254.652 89.9083 250.204 89.5018C245.756 89.0954 241.315 90.3518 237.739 93.0284C234.163 95.7049 231.706 99.6117 230.843 103.994H230.518C227.878 103.988 225.285 104.696 223.015 106.044C220.745 107.392 218.882 109.33 217.624 111.651C215.415 110.428 212.925 109.806 210.401 109.845C208.471 109.854 206.561 110.244 204.781 110.992C203.001 111.739 201.386 112.83 200.028 114.201C198.669 115.573 197.594 117.199 196.864 118.986C196.134 120.773 195.764 122.687 195.773 124.617C195.782 126.547 196.172 128.457 196.92 130.237C197.667 132.017 198.758 133.632 200.129 134.99C201.501 136.349 203.127 137.424 204.914 138.154C206.701 138.884 208.615 139.254 210.545 139.245L266.075 138.974C269.886 138.889 273.515 137.327 276.196 134.617C278.878 131.907 280.401 128.261 280.446 124.449C280.49 120.637 279.052 116.957 276.435 114.186C273.818 111.414 270.226 109.767 266.418 109.593L266.454 109.629Z" fill="white"/>
<path id="Path 1701" d="M246.048 89.295C242.305 89.7993 238.815 91.4644 236.068 94.0559C233.321 96.6474 231.455 100.035 230.734 103.742H230.409C227.765 103.748 225.172 104.47 222.905 105.83C220.638 107.191 218.782 109.14 217.533 111.471C215.318 110.266 212.832 109.644 210.31 109.665" stroke="#263238" stroke-width="0.652" stroke-linecap="round" stroke-linejoin="round"/>
<path id="Path 1702" d="M266.381 104.987C265.841 100.589 263.702 96.5432 260.372 93.6197C257.042 90.6962 252.754 89.0989 248.323 89.132" stroke="#263238" stroke-width="0.652" stroke-linecap="round" stroke-linejoin="round"/>
<path id="Path 1703" d="M266.02 138.847C269.831 138.762 273.46 137.2 276.141 134.49C278.823 131.78 280.346 128.134 280.391 124.322C280.435 120.51 278.997 116.83 276.38 114.059C273.763 111.287 270.171 109.64 266.363 109.466" stroke="#263238" stroke-width="0.652" stroke-linecap="round" stroke-linejoin="round"/>
<path id="Path 1704" d="M258.472 138.883H263.691" stroke="#263238" stroke-width="0.652" stroke-linecap="round" stroke-linejoin="round"/>
<path id="Path 1705" d="M207.804 109.936C204.203 110.614 200.985 112.61 198.778 115.535C196.571 118.46 195.534 122.103 195.871 125.752C196.207 129.4 197.892 132.792 200.597 135.264C203.302 137.736 206.831 139.11 210.495 139.118L255.948 138.901" stroke="#263238" stroke-width="0.652" stroke-linecap="round" stroke-linejoin="round"/>
</g>
<g id="translate_2">
<path id="Path 1706" d="M637.536 23.165C637.651 22.2845 637.711 21.3979 637.717 20.51C637.695 15.4991 635.806 10.6764 632.418 6.98426C629.03 3.29216 624.387 0.996021 619.396 0.544547C614.406 0.0930731 609.426 1.51871 605.431 4.54286C601.435 7.56701 598.711 11.9724 597.79 16.898H597.429C594.466 16.8994 591.558 17.703 589.014 19.2234C586.471 20.7439 584.386 22.9245 582.982 25.534C580.804 24.4031 578.399 23.7787 575.946 23.7075C573.492 23.6363 571.055 24.1202 568.815 25.1229C566.575 26.1256 564.591 27.6213 563.01 29.4983C561.429 31.3754 560.292 33.5853 559.685 35.963C559.077 38.3408 559.015 40.8251 559.502 43.2304C559.989 45.6357 561.013 47.8998 562.498 49.8539C563.983 51.808 565.89 53.4014 568.077 54.5154C570.263 55.6293 572.673 56.2349 575.127 56.287L637.158 55.998C641.512 56.0483 645.707 54.367 648.821 51.3242C651.935 48.2813 653.712 44.126 653.763 39.7725C653.813 35.419 652.132 31.2238 649.089 28.1098C646.046 24.9959 641.891 23.2183 637.537 23.168L637.536 23.165Z" fill="white"/>
<path id="Path 1707" d="M614.855 0.556007C610.662 1.1282 606.755 3.0061 603.688 5.92337C600.622 8.84065 598.552 12.6492 597.772 16.809H597.429C594.466 16.81 591.559 17.613 589.015 19.1327C586.472 20.6524 584.387 22.8323 582.982 25.441C580.535 24.0824 577.781 23.3736 574.982 23.382" stroke="#263238" stroke-width="0.75" stroke-linecap="round" stroke-linejoin="round"/>
<path id="Path 1708" d="M637.536 18.054C636.938 13.1578 634.563 8.65185 630.86 5.39247C627.158 2.13309 622.387 0.347488 617.455 0.375008" stroke="#263238" stroke-width="0.75" stroke-linecap="round" stroke-linejoin="round"/>
<path id="Path 1709" d="M637.157 55.851C641.262 55.5565 645.105 53.7297 647.926 50.7331C650.746 47.7365 652.337 43.7891 652.382 39.6742C652.428 35.5593 650.925 31.5777 648.171 28.5195C645.418 25.4613 641.615 23.5501 637.518 23.165" stroke="#263238" stroke-width="0.75" stroke-linecap="round" stroke-linejoin="round"/>
<path id="Path 1710" d="M628.706 55.887H634.539" stroke="#263238" stroke-width="0.75" stroke-linecap="round" stroke-linejoin="round"/>
<path id="Path 1711" d="M572.146 23.598C568.147 24.3666 564.577 26.5954 562.131 29.8509C559.684 33.1063 558.536 37.1555 558.911 41.2105C559.285 45.2655 561.154 49.0362 564.155 51.7889C567.156 54.5416 571.074 56.0794 575.146 56.103L625.872 55.868" stroke="#263238" stroke-width="0.75" stroke-linecap="round" stroke-linejoin="round"/>
</g>
<g id="translate_3">
<path id="Path 1712" d="M509.918 56.934C512.208 50.3977 516.472 44.7341 522.12 40.726C527.768 36.7179 534.522 34.5633 541.448 34.56C544.261 34.5583 547.063 34.9039 549.791 35.589C552.502 32.0567 556.205 29.4143 560.427 28.0003C564.649 26.5863 569.197 26.4652 573.488 27.6525C577.78 28.8398 581.618 31.2814 584.513 34.6644C587.408 38.0475 589.227 42.2178 589.736 46.641C596.565 47.7275 602.735 51.3451 607.018 56.7741C611.301 62.2031 613.384 69.0455 612.851 75.9401C612.318 82.8347 609.21 89.276 604.144 93.9827C599.077 98.6894 592.425 101.316 585.51 101.341L513.276 101.449C507.636 101.452 502.204 99.3233 498.068 95.4897C493.931 91.6561 491.397 86.4009 490.972 80.7772C490.547 75.1536 492.263 69.5771 495.777 65.1656C499.29 60.7541 504.341 57.8334 509.917 56.989L509.918 56.934Z" fill="white"/>
<path id="Path 1713" d="M589.7 47.11C596.531 48.1968 602.702 51.8158 606.985 57.2467C611.268 62.6776 613.349 69.5221 612.814 76.418C612.279 83.3139 609.167 89.7555 604.098 94.4607C599.028 99.1659 592.373 101.79 585.456 101.81" stroke="#263238" stroke-width="0.75" stroke-linecap="round" stroke-linejoin="round"/>
<path id="Path 1714" d="M541.447 35.083C544.26 35.083 547.063 35.4289 549.792 36.113C552.284 32.8695 555.618 30.3718 559.431 28.8919C563.244 27.4119 567.391 27.0065 571.418 27.7197C575.446 28.433 579.201 30.2375 582.274 32.9369C585.347 35.6362 587.62 39.127 588.847 43.029" stroke="#263238" stroke-width="0.75" stroke-linecap="round" stroke-linejoin="round"/>
<path id="Path 1715" d="M491.841 72.97C493.09 68.9492 495.446 65.3616 498.64 62.6181C501.834 59.8746 505.736 58.0863 509.899 57.458C511.919 51.6959 515.477 46.5966 520.188 42.713C524.9 38.8294 530.584 36.3097 536.626 35.427" stroke="#263238" stroke-width="0.75" stroke-linecap="round" stroke-linejoin="round"/>
<path id="Path 1716" d="M569.908 101.828H513.24C507.334 101.833 501.667 99.4988 497.477 95.3363C493.288 91.1738 490.917 85.5217 490.884 79.616" stroke="#263238" stroke-width="0.75" stroke-linecap="round" stroke-linejoin="round"/>
<path id="Path 1717" d="M578.63 101.809H575.867" stroke="#263238" stroke-width="0.75" stroke-linecap="round" stroke-linejoin="round"/>
</g>
</g>
<g id="arrow">
<path id="Path 1718" d="M807.9 174.53L775.575 99.2629L700.308 131.569L711.251 157.049L743.034 143.415L688.552 279.883L607.632 380.848L484.474 420.378L483.3 420.757L370.02 480.964L293.055 510.201L269.976 629.223H211.611L163.124 743.223H12.463V770.961H181.454L229.954 656.961H292.833L317.325 530.623L381.487 506.262L494.117 446.398L624.047 404.698L712.768 293.998L768.785 153.684L782.419 185.449L807.9 174.53Z" fill="#F7931E"/>
</g>
<g id="freepik--Floor--inject-83">
<path id="Line 2" d="M10.043 772.806H775.322" stroke="#263238" stroke-linecap="round" stroke-linejoin="round"/>
</g>
<g id="translate_5">
<g id="freepik--character-3--inject-83">
<path id="Path 1719" d="M377.116 460.395L376.61 468.738C376.61 468.738 369.387 473.704 363.734 477.189C360.122 479.41 356.834 479.97 357.269 481.722C358.353 486.201 373.919 481.144 381.702 479.266C389.485 477.388 399.76 477.46 392.23 470.366C391.421 469.499 390.667 468.582 389.973 467.621L390.208 459.116L377.116 460.395Z" fill="#263238" stroke="#263238" stroke-linecap="round" stroke-linejoin="round"/>
<path id="Path 1720" d="M477.124 396.666C477.124 396.666 479.309 405.406 478.93 408.35C478.441 411.349 478.533 414.414 479.201 417.379C480.701 422.417 483.878 420.413 490.813 418.715C498.181 416.909 504.194 416.403 503.613 412.99C503.032 409.577 493.807 408.909 491.893 406.236C489.979 403.563 488.859 393.736 488.859 393.736L477.124 396.666Z" fill="#263238" stroke="#263238" stroke-linecap="round" stroke-linejoin="round"/>
<path id="Path 1721" d="M403.666 331.242C403.666 331.242 380.407 380.325 376.976 402.717C373.545 425.109 375.604 463.935 375.604 463.935C375.604 463.935 381.635 467.547 391.857 464.079C391.857 464.079 396.263 407.845 399.586 401.344C402.909 394.843 427.886 359.268 432.452 357.209C437.018 355.15 461.725 371.963 465.264 378.066C468.803 384.169 477.178 405.608 477.178 405.608C477.178 405.608 483.661 408.786 492.004 401.364C492.004 401.364 490.397 373.864 482.686 363.064C474.975 352.264 450.813 325.791 450.813 325.791L403.666 331.242Z" fill="#999999" stroke="#263238" stroke-linecap="round" stroke-linejoin="round"/>
<path id="Path 1722" opacity="0.3" d="M481.35 379.566C472.664 382.311 464.736 371.873 460.131 367.286C455.526 362.699 446.804 348.975 441.549 352.081C436.294 355.187 432.52 354.338 423.491 352.316C414.462 350.294 401.442 392.045 394.832 397.462C388.222 402.879 391.094 399.033 387.5 431.322C384.972 454.039 378.832 459.692 375.419 461.046C375.411 462.035 375.46 463.024 375.563 464.008C375.563 464.008 381.595 467.62 391.816 464.152C391.816 464.152 396.222 407.918 399.545 401.417C402.868 394.916 427.845 359.341 432.411 357.282C436.977 355.223 461.684 372.039 465.223 378.139C468.762 384.239 477.142 405.678 477.142 405.678C477.142 405.678 483.625 408.856 491.968 401.434C491.355 392.19 489.848 383.028 487.468 374.075C486.982 375.425 486.169 376.633 485.101 377.592C484.034 378.55 482.745 379.228 481.35 379.566V379.566Z" fill="black"/>
<path id="Path 1723" d="M380.728 400.206C380.164 403.54 380.45 406.962 381.559 410.156" stroke="#263238" stroke-width="0.75" stroke-linecap="round" stroke-linejoin="round"/>
<path id="Path 1724" d="M468.871 370.554C468.871 370.554 463.291 371.89 466.885 381.389" stroke="#263238" stroke-width="0.75" stroke-linecap="round" stroke-linejoin="round"/>
<path id="Path 1725" d="M413.847 345.887C413.847 345.887 430.641 352.262 428.98 354.573C427.319 356.884 418.921 355.422 418.921 355.422" stroke="#263238" stroke-width="0.75" stroke-linecap="round" stroke-linejoin="round"/>
<path id="Path 1726" d="M437.07 351.341C440.639 349.501 443.913 347.14 446.785 344.334" stroke="#263238" stroke-width="0.75" stroke-linecap="round" stroke-linejoin="round"/>
<path id="Path 1727" d="M484.076 373.823C484.076 373.823 480.32 377.904 476.582 376.911" stroke="#263238" stroke-width="0.75" stroke-linecap="round" stroke-linejoin="round"/>
<path id="Path 1728" d="M394.703 402.933C394.703 402.933 388.581 404.179 387.841 406.021" stroke="#263238" stroke-width="0.75" stroke-linecap="round" stroke-linejoin="round"/>
<path id="Path 1729" d="M365.631 279.179L355.97 287.685C350.673 289.331 345.722 291.932 341.361 295.36C333.018 301.5 311.33 317.915 311.33 317.915C308.748 318.758 306.094 319.363 303.402 319.721C299.79 320.121 295.908 322.827 296.684 324.055C297.46 325.283 300.801 322.737 301.614 322.863C302.427 322.989 300.856 330.809 301.921 332.615C302.986 334.421 304.63 331.947 304.63 331.947C304.915 332.18 305.248 332.346 305.606 332.435C305.963 332.523 306.335 332.532 306.696 332.459C307.057 332.387 307.397 332.235 307.692 332.016C307.988 331.796 308.231 331.514 308.404 331.189C308.404 331.189 310.896 331.695 311.329 329.528C311.571 329.644 311.837 329.699 312.105 329.689C312.373 329.68 312.635 329.605 312.867 329.472C313.1 329.339 313.297 329.151 313.441 328.925C313.585 328.699 313.672 328.441 313.695 328.174C314.022 326.872 314.451 325.599 314.977 324.364C314.977 324.364 354.814 306.306 360.647 298.992C360.647 298.992 365.74 297.186 366.606 294.857L374.191 288.88L365.631 279.179Z" fill="white" stroke="#263238" stroke-linecap="round" stroke-linejoin="round"/>
<g id="Path 1730">
<path d="M302.86 329.093C302.86 329.093 304.395 328.876 304.666 329.599C304.937 330.322 306.472 328.371 307.321 328.786C308.17 329.201 309.321 326.565 310.445 327.233" fill="white"/>
<path d="M302.86 329.093C302.86 329.093 304.395 328.876 304.666 329.599C304.937 330.322 306.472 328.371 307.321 328.786C308.17 329.201 309.321 326.565 310.445 327.233" stroke="#263238" stroke-width="0.75" stroke-linecap="round" stroke-linejoin="round"/>
</g>
<path id="Path 1731" d="M508.058 241.672C505.096 244.561 489.368 282.159 478.334 278.511C470.792 275.885 463.453 272.71 456.375 269.011L462.009 254.402L478.966 263.431C478.966 263.431 479.291 258.862 501.16 239.287C501.16 239.287 498.578 232.064 498.921 229.12C499.264 226.176 498.521 223.052 500.203 223.107C501.885 223.162 501.449 228.272 501.449 228.272L501.828 229.843C501.828 229.843 505.728 230.186 507.246 227.911C508.386 226.399 509.141 224.633 509.446 222.764C509.699 221.373 511.125 218.899 511.812 221.229C511.812 221.229 513.618 220.434 513.618 223.035C513.651 224.434 513.596 225.833 513.455 227.225C513.455 227.225 515.134 223.848 515.767 224.534C516.4 225.22 514.505 229.122 514.505 229.122C514.505 229.122 516.961 226.973 517.178 227.876C517.395 228.779 514.668 231.217 514.09 232.788C512.689 236.121 510.639 239.141 508.058 241.673V241.672Z" fill="white" stroke="#263238" stroke-linecap="round" stroke-linejoin="round"/>
<path id="Path 1732" d="M416.105 246.457C408.629 247.884 384.99 252.757 387.32 261.066C389.505 268.813 401.586 305.923 399.076 327.882C399.006 328.466 399.057 329.058 399.227 329.622C399.397 330.185 399.682 330.707 400.064 331.155C400.446 331.603 400.916 331.967 401.445 332.224C401.974 332.481 402.551 332.626 403.139 332.649C419.302 333.265 435.47 331.574 451.156 327.629C453.437 327.058 455.425 325.658 456.73 323.701C458.035 321.745 458.565 319.373 458.217 317.047C456.517 305.923 454.046 285.661 455.635 269.788C458.018 246.731 456.736 238.731 416.105 246.457Z" fill="#0071BC" stroke="#263238" stroke-linecap="round" stroke-linejoin="round"/>
<path id="Path 1733" d="M441.657 251.947C439.607 253.544 438.235 255.856 437.817 258.421C437.398 260.986 437.964 263.614 439.4 265.78" stroke="#263238" stroke-width="0.75" stroke-linecap="round" stroke-linejoin="round"/>
<path id="Path 1734" d="M395.175 286.204C405.803 301.936 421.655 313.4 439.924 318.565" stroke="#263238" stroke-width="0.75" stroke-linecap="round" stroke-linejoin="round"/>
<path id="Path 1735" d="M405.342 324.881C413.047 325.53 420.804 325.135 428.403 323.707" stroke="#263238" stroke-width="0.75" stroke-linecap="round" stroke-linejoin="round"/>
<g id="Path 1736">
<path d="M388.978 258.466L361.568 278.077C361.568 278.077 367.744 293.065 374.317 294.005L394.978 280.551" fill="#0071BC"/>
<path d="M388.978 258.466L361.568 278.077C361.568 278.077 367.744 293.065 374.317 294.005L394.978 280.551" stroke="#263238" stroke-linecap="round" stroke-linejoin="round"/>
</g>
<g id="Path 1737">
<path d="M443.156 247.414C443.156 247.414 457.603 249.96 476.365 260.614C476.365 260.614 476.365 272.045 469.142 279.521L450.486 270.764" fill="#0071BC"/>
<path d="M443.156 247.414C443.156 247.414 457.603 249.96 476.365 260.614C476.365 260.614 476.365 272.045 469.142 279.521L450.486 270.764" stroke="#263238" stroke-linecap="round" stroke-linejoin="round"/>
</g>
<path id="Path 1738" d="M405.649 259.278L409.405 266.754L408.358 287.305C408.358 287.305 408.195 304.93 415.383 331.241L420.8 333.589L424.881 330.375C424.881 330.375 417.387 293.68 416.646 286.728L412.565 266.16L415.527 258.612L409.369 259.37L405.649 259.278Z" fill="#263238" stroke="#263238" stroke-linecap="round" stroke-linejoin="round"/>
<path id="Path 1739" d="M414.642 249.943C411.789 250.503 406.588 251.55 401.369 253.085C400.293 256.915 400.163 260.949 400.99 264.841C402.05 263.136 403.685 261.867 405.599 261.262C407.513 260.656 409.581 260.755 411.428 261.541C419.428 255.961 425.279 260.096 425.279 260.096C424.792 256.2 424.111 252.33 423.238 248.502C420.583 248.895 417.748 249.365 414.642 249.943Z" fill="#0071BC" stroke="#263238" stroke-width="0.75" stroke-linecap="round" stroke-linejoin="round"/>
<path id="Path 1740" d="M417.206 242.195C417.206 242.195 419.156 248.295 421.287 248.768C421.287 248.768 418.542 259.513 408.303 257.436C398.064 255.359 411.156 245.68 411.156 245.68L417.206 242.195Z" fill="white" stroke="#263238" stroke-linecap="round" stroke-linejoin="round"/>
<path id="Path 1741" d="M415.274 241.671C415.274 241.671 417.423 246.547 420.583 245.843C420.583 245.843 418.183 237.356 419.301 232.209C420.419 227.062 416.755 214.042 404.547 217.618C399.046 217.461 393.644 219.103 389.161 222.295C382.136 227.586 380.944 223.704 380.944 223.704C380.944 223.704 379.499 230.004 386.271 228.471C386.271 228.471 384.465 232.083 381.341 231.216C381.341 231.216 383.689 234.448 386.759 232.877C386.759 232.877 384.718 235.694 386.488 237.608C386.488 237.608 394.849 230.908 399.761 232.082C404.673 233.256 415.274 241.671 415.274 241.671Z" fill="#263238" stroke="#263238" stroke-linecap="round" stroke-linejoin="round"/>
<path id="Path 1742" d="M390.805 239.866C390.805 239.866 394.037 255.216 404.024 260.435C410.706 263.92 417.568 246.675 417.459 244.327C418.413 243.856 419.222 243.136 419.801 242.242C420.38 241.349 420.706 240.316 420.746 239.253C420.909 235.533 418.2 234.63 415.997 236.364C415.997 236.364 415.097 238.964 413.938 239.127C412.779 239.29 413.053 232.554 411.717 231.904C410.381 231.254 407.217 230.965 406.191 228.292C405.165 225.619 400.773 229.375 395.085 230.098C389.397 230.821 389.757 236.056 390.805 239.866Z" fill="white" stroke="#263238" stroke-linecap="round" stroke-linejoin="round"/>
<path id="Path 1743" d="M396.981 242.665C397.076 243.849 396.93 245.041 396.552 246.167C396.174 247.294 395.571 248.332 394.781 249.22C393.281 250.863 399.043 249.78 399.481 250.936" stroke="#263238" stroke-width="0.75" stroke-linecap="round" stroke-linejoin="round"/>
<path id="Path 1744" d="M394.091 242.593C394.291 243.37 394.091 244.074 393.838 244.146C393.585 244.218 393.08 243.658 392.899 242.882C392.718 242.106 392.899 241.382 393.152 241.311C393.405 241.24 393.911 241.798 394.091 242.593Z" fill="#263238"/>
<path id="Path 1745" d="M401.784 240.715C401.965 241.51 401.784 242.196 401.531 242.286C401.278 242.376 400.773 241.798 400.574 241.004C400.375 240.21 400.574 239.523 400.827 239.433C401.08 239.343 401.585 239.868 401.784 240.715Z" fill="#263238"/>
<path id="Path 1746" d="M406.84 249.148C407.057 251.315 401.874 252.76 401.874 252.76" stroke="#263238" stroke-width="0.75" stroke-linecap="round" stroke-linejoin="round"/>
<path id="Path 1747" d="M390.805 239.866C391.594 239.566 392.447 239.478 393.281 239.611C394.114 239.744 394.898 240.093 395.554 240.624" stroke="#263238" stroke-width="0.75" stroke-linecap="round" stroke-linejoin="round"/>
<path id="Path 1748" d="M398.516 239.306C398.516 239.306 399.726 234.647 402.399 236.453" stroke="#263238" stroke-width="0.75" stroke-linecap="round" stroke-linejoin="round"/>
<g id="Path 1749">
<path d="M503.706 232.642C504.235 233.193 504.608 233.874 504.789 234.616C504.97 235.359 504.951 236.135 504.735 236.868" fill="white"/>
<path d="M503.706 232.642C504.235 233.193 504.608 233.874 504.789 234.616C504.97 235.359 504.951 236.135 504.735 236.868" stroke="#263238" stroke-linecap="round" stroke-linejoin="round"/>
</g>
</g>
<g id="freepik--character-4--inject-83">
<path id="Path 1750" d="M679.125 268.489C675.923 261.354 672.361 254.387 668.452 247.614C664.352 241.221 639.197 244.002 629.252 246.964C619.307 249.926 613.452 286.187 611.519 297.997C609.586 309.807 622.806 360.515 622.806 360.515C618.129 366.962 604.657 365.192 604.657 365.192C604.657 365.192 590.626 324.813 587.7 303.792C584.774 282.771 597.451 230.637 597.451 230.637L636.778 220.561C636.778 220.561 665.346 220.019 678.114 220.705C697.021 221.698 691.369 264.659 691.369 264.659C691.369 264.659 690.249 268.489 679.125 268.489Z" fill="#263238" stroke="#263238" stroke-linecap="round" stroke-linejoin="round"/>
<path id="Path 1751" d="M606.151 359.937C606.151 359.937 610.539 368.713 603.951 372.217C597.363 375.721 594.633 380.849 598.208 380.849H620.637C624.592 380.849 628.547 378.808 625.025 372.149C624.325 370.831 620.203 356.849 620.203 356.849L606.151 359.937Z" fill="#263238" stroke="#263238" stroke-linecap="round" stroke-linejoin="round"/>
<path id="Path 1752" d="M678.114 261.012C678.114 261.012 679.577 270.673 679.92 276.235C680.263 281.797 684.02 285.011 688.407 282.971C692.794 280.931 714.158 265.996 712.985 262.764C711.812 259.532 707.134 263.364 701.572 264.57C698.604 265.233 695.582 265.62 692.543 265.726L691.08 257.834L678.114 261.012Z" fill="#263238" stroke="#263238" stroke-linecap="round" stroke-linejoin="round"/>
<path id="Path 1753" d="M589.068 300.813C589.068 300.813 590.639 306.953 594.142 309.013" stroke="#7F7F7F" stroke-width="0.75" stroke-linecap="round" stroke-linejoin="round"/>
<path id="Path 1754" d="M611.515 244.922C611.515 244.922 626.431 241.31 626.377 243.459C626.323 245.608 617.348 249.021 616.677 250.682" stroke="#7F7F7F" stroke-width="0.75" stroke-linecap="round" stroke-linejoin="round"/>
<path id="Path 1755" d="M629.266 242.81C629.266 242.81 638.636 238.837 638.636 236.616" stroke="#7F7F7F" stroke-width="0.75" stroke-linecap="round" stroke-linejoin="round"/>
<path id="Path 1756" d="M691.333 264.606C687.564 266.733 683.395 268.055 679.089 268.489" stroke="#7F7F7F" stroke-width="0.75" stroke-linecap="round" stroke-linejoin="round"/>
<path id="Path 1757" d="M622.241 362.068C618.395 365.246 611.841 365.517 608.192 365.391" stroke="#7F7F7F" stroke-width="0.75" stroke-linecap="round" stroke-linejoin="round"/>
<path id="Path 1758" d="M623.686 140.545C623.686 140.545 628.652 122.107 618.413 117.412C618.413 117.412 611.533 110.387 598.549 117.412C585.565 124.437 590.513 129.078 593.276 127.412C593.276 127.412 586.992 133.064 588.599 134.834C590.206 136.604 593.276 133.516 593.276 133.516C593.16 136.69 593.976 139.829 595.624 142.545C598.261 146.157 610.829 144.745 610.829 144.745L620.508 142.939L623.686 140.545Z" fill="#263238" stroke="#263238" stroke-linecap="round" stroke-linejoin="round"/>
<path id="Path 1759" d="M598.534 236.526C596.797 236.431 595.142 235.757 593.832 234.612C592.523 233.466 591.635 231.915 591.311 230.206C589.794 222.423 586.833 207.832 583.6 194.884C578.9 176.157 561.244 158.171 607.6 150.406C652.981 142.785 642.705 163.282 642.128 175.561C641.64 185.62 639.203 204.454 643.139 214.007C643.866 215.672 643.993 217.538 643.5 219.286C643.006 221.034 641.921 222.558 640.43 223.596C632.155 229.212 616.625 237.537 598.534 236.526Z" fill="#999999" stroke="#263238" stroke-linecap="round" stroke-linejoin="round"/>
<path id="Path 1760" d="M587.063 180.725C592.078 187.582 598.634 193.163 606.204 197.018C613.773 200.874 622.143 202.895 630.638 202.919" stroke="#263238" stroke-width="0.75" stroke-linecap="round" stroke-linejoin="round"/>
<path id="Path 1761" d="M594.413 216.156L633.383 216.499C621.597 222.047 608.757 224.997 595.731 225.149" stroke="#263238" stroke-width="0.75" stroke-linecap="round" stroke-linejoin="round"/>
<path id="Path 1762" d="M602.413 159.759C602.413 159.759 604.219 168.391 606.025 169.276C606.025 169.276 601.637 195.894 605.158 218.576L606.658 227.208L613.358 230.585L618.902 224.138C618.902 224.138 617.602 218.107 617.096 216.102C614.55 204.49 609.62 182.297 609.873 169.15C609.873 169.15 615.995 164.31 615.561 160.121L602.413 159.759Z" fill="#0071BC" stroke="#263238" stroke-linecap="round" stroke-linejoin="round"/>
<path id="Path 1763" d="M658.34 161.893L670.096 152.376C674.832 151.041 679.467 149.37 683.965 147.376C692.994 143.548 715.351 132.044 715.351 132.044C717.934 131.806 720.533 131.806 723.116 132.044C726.475 132.459 730.716 130.834 730.339 129.516C729.962 128.198 726.239 129.823 725.517 129.516C724.795 129.209 727.973 122.293 727.323 120.487C726.673 118.681 724.704 120.487 724.704 120.487C724.489 120.219 724.219 120.001 723.913 119.847C723.606 119.693 723.27 119.607 722.927 119.595C722.584 119.584 722.243 119.646 721.926 119.778C721.609 119.91 721.325 120.109 721.092 120.361C721.092 120.361 718.892 119.332 718.022 121.246C717.824 121.084 717.588 120.972 717.337 120.922C717.086 120.871 716.826 120.883 716.58 120.956C716.334 121.029 716.11 121.161 715.927 121.34C715.744 121.52 715.608 121.742 715.53 121.986C714.933 123.11 714.257 124.19 713.507 125.218C713.507 125.218 674.031 134.247 667.025 139.665L648.859 150.007L658.34 161.893Z" fill="white" stroke="#263238" stroke-linecap="round" stroke-linejoin="round"/>
<path id="Path 1764" d="M571.804 192.3L558.73 199.523C555.143 202.891 551.31 205.988 547.263 208.787C539.281 214.548 517.863 227.658 517.863 227.658C516.324 229.744 514.982 231.969 513.854 234.303C512.463 237.391 508.888 240.172 507.985 239.125C507.082 238.078 510.369 235.784 510.513 235.008C510.657 234.232 503.091 233.383 501.773 231.884C500.455 230.385 503.145 229.645 503.145 229.645C503.019 229.317 502.968 228.966 502.994 228.616C503.019 228.266 503.122 227.926 503.295 227.62C503.467 227.314 503.705 227.05 503.992 226.847C504.278 226.644 504.605 226.507 504.951 226.445C504.951 226.445 505.222 224.025 507.299 224.278C507.299 224.278 507.064 222.472 509.231 222.472C510.499 222.563 511.773 222.563 513.041 222.472C513.041 222.472 541.248 193.434 549.541 190.256L566.141 179.583L571.804 192.3Z" fill="white" stroke="#263238" stroke-linecap="round" stroke-linejoin="round"/>
<path id="Path 1765" d="M596.761 150.097C596.761 150.097 594.761 164.887 597.447 167.957C597.447 167.957 600.264 159.181 607.74 164.743C607.74 164.743 618.575 158.152 620.164 166.928C620.164 166.928 623.974 156.346 623.776 148.4L599.511 148.111L596.761 150.097Z" fill="#999999" stroke="#263238" stroke-width="0.75" stroke-linecap="round" stroke-linejoin="round"/>
<g id="Path 1766">
<path d="M582.458 158.91L555.497 183.54C555.497 183.54 563.443 195.84 568.987 198.474C574.531 201.108 584.174 183.251 584.174 183.251" fill="#999999"/>
<path d="M582.458 158.91L555.497 183.54C555.497 183.54 563.443 195.84 568.987 198.474C574.531 201.108 584.174 183.251 584.174 183.251" stroke="#263238" stroke-linecap="round" stroke-linejoin="round"/>
</g>
<g id="Path 1767">
<path d="M631.487 149.322L661.735 140.112C661.735 140.112 666.99 151.868 664.66 159.182C662.33 166.496 639.776 167.958 639.776 167.958" fill="#999999"/>
<path d="M631.487 149.322L661.735 140.112C661.735 140.112 666.99 151.868 664.66 159.182C662.33 166.496 639.776 167.958 639.776 167.958" stroke="#263238" stroke-linecap="round" stroke-linejoin="round"/>
</g>
<path id="Path 1768" d="M595.623 142.495C595.623 142.495 598.548 162.359 606.747 162.359C614.946 162.359 621.085 152.228 621.663 149.826C621.979 148.637 622.226 147.431 622.403 146.214C622.403 146.214 623.125 147.081 624.588 146.358C626.051 145.635 626.502 136.408 625.473 136.263C624.355 136.177 623.232 136.177 622.114 136.263C622.114 136.263 622.114 140.796 620.94 140.651C619.766 140.506 620.055 134.351 619.333 133.626C618.611 132.901 615.812 133.77 613.771 132.308C611.73 130.846 609.816 134.114 604.742 134.349C599.668 134.584 598.942 131.279 597.519 132.886C596.096 134.493 597.194 141.755 595.623 142.495Z" fill="white" stroke="#263238" stroke-linecap="round" stroke-linejoin="round"/>
<path id="Path 1769" d="M603.477 144.933C602.861 146.88 602.521 148.904 602.466 150.946C602.755 152.446 606.475 150.693 606.601 151.867" stroke="#263238" stroke-width="0.75" stroke-linecap="round" stroke-linejoin="round"/>
<path id="Path 1770" d="M606.603 155.082C607.521 155.105 608.433 154.934 609.28 154.579C610.126 154.224 610.888 153.694 611.515 153.023" stroke="#263238" stroke-width="0.75" stroke-linecap="round" stroke-linejoin="round"/>
<path id="Path 1771" d="M600.265 145.8C600.265 146.54 599.94 147.136 599.543 147.136C599.146 147.136 598.803 146.536 598.803 145.8C598.803 145.064 599.146 144.464 599.543 144.464C599.94 144.464 600.265 145.06 600.265 145.8Z" fill="#263238"/>
<path id="Path 1772" d="M609.113 145.384C609.113 146.124 608.788 146.72 608.391 146.72C607.994 146.72 607.651 146.12 607.651 145.384C607.651 144.648 607.976 144.048 608.391 144.048C608.806 144.048 609.113 144.644 609.113 145.384Z" fill="#263238"/>
<path id="Path 1773" d="M597.429 140.889C597.429 140.889 599.235 138.689 601.709 142.695" stroke="#263238" stroke-width="0.75" stroke-linecap="round" stroke-linejoin="round"/>
<path id="Path 1774" d="M605.971 142.784C605.971 142.784 609.171 139.57 610.793 140.978" stroke="#263238" stroke-width="0.75" stroke-linecap="round" stroke-linejoin="round"/>
<path id="Path 1775" d="M662.692 244.941L674.992 245.429" stroke="#7F7F7F" stroke-width="0.75" stroke-linecap="round" stroke-linejoin="round"/>
<path id="Path 1776" d="M683.134 222.368C685.302 224.464 686.901 227.077 687.779 229.961C688.657 232.846 688.786 235.907 688.154 238.855" stroke="#7F7F7F" stroke-width="0.75" stroke-linecap="round" stroke-linejoin="round"/>
</g>
<g id="freepik--character-2--inject-83">
<path id="Path 1777" d="M246.356 390.564L257.606 379.982C260.406 375.625 263.52 371.479 266.924 367.576C273.588 359.648 292.079 340.759 292.079 340.759C293.107 338.23 293.905 335.613 294.463 332.94C295.077 329.419 298.075 325.717 299.212 326.511C300.349 327.305 297.641 330.538 297.695 331.369C297.749 332.2 305.695 331.116 307.41 332.308C309.125 333.5 306.597 334.945 306.597 334.945C306.811 335.245 306.956 335.589 307.02 335.952C307.085 336.316 307.069 336.688 306.972 337.044C306.875 337.4 306.701 337.73 306.461 338.01C306.221 338.291 305.923 338.514 305.586 338.665C305.586 338.665 305.929 341.193 303.78 341.482C303.78 341.482 304.502 343.288 302.263 343.757C300.951 344.01 299.659 344.36 298.399 344.804C298.399 344.804 277.072 381.697 269.506 387.061L255.457 403.855L246.356 390.564Z" fill="#999999" stroke="#263238" stroke-linecap="round" stroke-linejoin="round"/>
<g id="Path 1778">
<path d="M226.798 407.448C226.798 407.448 242.418 391.648 250.098 385.778C250.098 385.778 259.254 396.378 258.929 405.642C258.929 405.642 246.794 419.673 240.762 421.01" fill="white"/>
<path d="M226.798 407.448C226.798 407.448 242.418 391.648 250.098 385.778C250.098 385.778 259.254 396.378 258.929 405.642C258.929 405.642 246.794 419.673 240.762 421.01" stroke="#263238" stroke-linecap="round" stroke-linejoin="round"/>
</g>
<path id="Path 1779" d="M261.2 496.602C265.069 499.141 268.187 502.671 270.229 506.823C272.667 512.241 270.229 514.516 273.841 517.857C277.976 521.667 302.734 501.839 301.561 498.462C300.388 495.085 295.403 499.076 289.552 500.268C286.413 500.975 283.215 501.386 279.999 501.496L272.899 489.487L261.2 496.602Z" fill="#263238" stroke="#263238" stroke-linecap="round" stroke-linejoin="round"/>
<path id="Path 1780" d="M219.647 480.946C219.647 480.946 234.798 474.553 240.342 459.456C240.342 459.456 236.026 474.228 265.624 503.193C265.624 503.193 274.653 501.965 277.994 493.947C277.994 493.947 251.954 433.271 242.762 433.578C233.57 433.885 199.422 462.941 199.422 462.941C199.422 462.941 202.636 483.654 219.647 480.946Z" fill="#0071BC" stroke="#263238" stroke-linecap="round" stroke-linejoin="round"/>
<path id="Path 1781" opacity="0.2" d="M246.355 469.532C243.484 462.146 244.928 439.013 240.287 451.708C235.646 464.403 224.63 463.085 224.63 463.085L220.91 468.376L225.388 477.676C232.149 473.309 237.377 466.939 240.34 459.455C240.34 459.455 236.024 474.227 265.622 503.193C269.248 502.542 272.587 500.797 275.193 498.193C265.371 501.008 249.245 476.901 246.355 469.532Z" fill="black"/>
<path id="Path 1782" d="M242.762 447.736C242.762 447.736 240.762 448.836 241.317 455.682" stroke="#263238" stroke-width="0.75" stroke-linecap="round" stroke-linejoin="round"/>
<path id="Path 1783" d="M257.931 607.156L259.087 614.556C267.629 623.332 277.561 620.317 278.03 624.256C278.499 628.195 264.63 627.488 259.321 627.488C254.012 627.488 244.766 629.294 242.906 626.098C241.985 624.491 244.585 620.337 245.561 616.581C246.156 614.27 246.279 611.862 245.922 609.502L257.931 607.156Z" fill="#263238" stroke="#263238" stroke-linecap="round" stroke-linejoin="round"/>
<path id="Path 1784" d="M224.631 366.419C224.631 366.419 232.342 359.954 229.561 357.39C226.78 354.826 223.349 359.467 223.349 359.467C223.349 359.467 226.094 351.16 222.175 350.004C218.256 348.848 217.787 357.227 217.787 357.227C217.787 357.227 217.552 349.859 213.616 350.004C209.68 350.149 213.616 355.169 206.916 359.575C200.216 363.981 191.909 369.29 198.374 376.675C198.374 376.675 194.455 381.298 202.311 386.375C210.167 391.452 212.117 393.147 213.146 398.889L222.175 390.311L223.349 372.975L224.631 366.419Z" fill="#263238" stroke="#263238" stroke-linecap="round" stroke-linejoin="round"/>
<path id="Path 1785" d="M241.317 382.527L253.344 372.866C256.478 368.737 259.912 364.844 263.617 361.218C270.84 353.832 290.705 336.424 290.705 336.424C291.926 333.986 292.923 331.442 293.685 328.824C294.57 325.375 297.802 321.853 298.922 322.793C300.042 323.733 297.116 326.693 297.116 327.506C297.116 328.319 305.098 327.885 306.723 329.206C308.348 330.527 305.694 331.77 305.694 331.77C305.881 332.084 305.996 332.436 306.032 332.8C306.068 333.164 306.023 333.532 305.9 333.877C305.778 334.221 305.581 334.535 305.324 334.795C305.067 335.055 304.755 335.256 304.412 335.382C304.412 335.382 304.556 337.928 302.353 338.055C302.353 338.055 302.931 339.861 300.653 340.204C299.324 340.349 298.007 340.597 296.716 340.944C296.716 340.944 272.59 376.013 264.554 380.727L249.24 396.366L241.317 382.527Z" fill="#999999" stroke="#263238" stroke-linecap="round" stroke-linejoin="round"/>
<path id="Path 1786" d="M180.28 471.465C180.28 471.465 173.815 484.702 188.912 497.957C204.009 511.212 231.728 541.695 233.57 551.557C235.412 561.419 244.044 612.251 244.044 612.251C244.044 612.251 253.904 615.014 260.297 610.084C260.297 610.084 260.911 561.184 255.674 541.895C250.437 522.606 231.313 498.934 225.805 483.476C225.108 480.231 224.691 476.932 224.559 473.616L180.28 471.465Z" fill="#0071BC" stroke="#263238" stroke-linecap="round" stroke-linejoin="round"/>
<path id="Path 1787" opacity="0.2" d="M241.227 547.238C242.127 542.109 213.2 501.55 204.009 501.55C200.289 501.55 194.095 499.744 188.948 497.938C204.048 511.193 231.728 541.657 233.57 551.499C235.412 561.341 244.048 612.194 244.048 612.194C246.445 612.787 248.913 613.036 251.38 612.934C243.737 611.129 240.306 552.367 241.227 547.238Z" fill="black"/>
<path id="Path 1788" d="M242.762 544.475C241.401 544.149 239.974 544.238 238.664 544.73C237.354 545.223 236.221 546.096 235.412 547.238" stroke="#263238" stroke-width="0.75" stroke-linecap="round" stroke-linejoin="round"/>
<path id="Path 1789" d="M227.72 367.106L231.874 373.824C231.874 373.824 237.851 374.745 238.682 376.587C239.513 378.429 235.341 379.587 235.341 379.587C235.341 379.587 241.12 386.287 240.199 388.616C239.278 390.945 231.17 395.316 231.17 395.316L213.382 396.416C213.382 396.416 216.382 391.396 214.989 387.929C214.989 387.929 208.289 388.344 208.989 381.771C209.689 375.198 214.298 380.308 214.298 380.308C214.917 379.965 215.395 379.415 215.649 378.754C215.903 378.094 215.917 377.365 215.688 376.696C214.988 373.933 217.295 372.777 217.494 370.466C217.693 368.155 223.62 360.406 227.72 367.106Z" fill="#999999" stroke="#263238" stroke-linecap="round" stroke-linejoin="round"/>
<path id="Path 1790" d="M229.796 373.859C230.284 374.69 230.284 375.665 229.796 375.845C229.308 376.025 228.568 375.664 228.08 374.834C227.592 374.004 227.592 373.028 228.08 372.848C228.568 372.668 229.326 373.046 229.796 373.859Z" fill="#263238"/>
<path id="Path 1791" d="M226.798 370.356C226.798 370.356 221.019 367.81 220.785 370.356" stroke="#263238" stroke-width="0.75" stroke-linecap="round" stroke-linejoin="round"/>
<path id="Path 1792" d="M209.011 402.391V395.168C209.011 395.168 241.516 387.945 237.311 399.556L233.952 402.391H209.011Z" fill="white" stroke="#263238" stroke-linecap="round" stroke-linejoin="round"/>
<path id="Path 1793" d="M177.806 477.243C180.328 456.284 186.263 435.88 195.376 416.838C210.166 386.807 241.476 396.538 242.508 405.371C244.314 421.046 235.285 435.221 230.734 454.237C227.718 466.737 229.434 476.828 225.407 477.37C215.241 478.706 177.806 477.243 177.806 477.243Z" fill="white" stroke="#263238" stroke-linecap="round" stroke-linejoin="round"/>
<g id="Path 1794">
<path d="M222.176 398.527C222.176 398.527 237.652 382.527 245.291 376.586C245.291 376.586 254.537 387.114 254.32 396.45C254.32 396.45 242.311 410.608 236.262 411.98" fill="white"/>
<path d="M222.176 398.527C222.176 398.527 237.652 382.527 245.291 376.586C245.291 376.586 254.537 387.114 254.32 396.45C254.32 396.45 242.311 410.608 236.262 411.98" stroke="#263238" stroke-linecap="round" stroke-linejoin="round"/>
</g>
<path id="Path 1795" d="M235.34 419.782C226.098 432.962 214.706 444.493 201.64 453.894" stroke="#263238" stroke-width="0.75" stroke-linecap="round" stroke-linejoin="round"/>
<path id="Path 1796" d="M221.977 443.384C214.733 454.775 204.627 464.065 192.668 470.327C192.849 469.966 193.011 469.605 193.192 469.227" stroke="#263238" stroke-width="0.75" stroke-linecap="round" stroke-linejoin="round"/>
</g>
<g id="freepik--character-1--inject-83">
<path id="Path 1797" d="M171.99 480.746C173.093 479.336 173.826 477.672 174.121 475.906C174.284 473.595 173.615 460.159 175.259 460.556C176.903 460.953 176.812 466.876 176.812 466.876C176.812 466.876 181.327 454.687 182.23 455.138C183.133 455.589 182.013 459.183 182.013 459.183C182.013 459.183 184.252 455.138 185.083 455.571C185.914 456.004 184.018 461.458 184.018 461.458C184.018 461.458 186.418 458.496 187.25 458.84C188.082 459.184 185.137 466.063 185.137 466.063C185.137 466.063 188.225 462.451 189.092 463.174C189.959 463.897 185.892 468.285 185.173 470.867C184.044 474.196 182.194 477.235 179.755 479.767L178.419 486.557L171.99 480.746Z" fill="white" stroke="#263238" stroke-linecap="round" stroke-linejoin="round"/>
<g id="Path 1798">
<path d="M104.813 537.233C104.813 537.233 110.881 531.906 130.925 528.633C133.771 528.191 136.405 526.864 138.455 524.841C142.955 520.38 149.29 514.475 152.793 510.741C157.651 505.414 159.077 502.326 170.851 477.17C173.377 477.549 175.71 478.742 177.497 480.567C179.283 482.392 180.426 484.75 180.751 487.283C180.751 487.283 170.367 512.222 164.625 520.239C158.883 528.256 133.925 546.604 133.925 546.604" fill="#0071BC"/>
<path d="M104.813 537.233C104.813 537.233 110.881 531.906 130.925 528.633C133.771 528.191 136.405 526.864 138.455 524.841C142.955 520.38 149.29 514.475 152.793 510.741C157.651 505.414 159.077 502.326 170.851 477.17C173.377 477.549 175.71 478.742 177.497 480.567C179.283 482.392 180.426 484.75 180.751 487.283C180.751 487.283 170.367 512.222 164.625 520.239C158.883 528.256 133.925 546.604 133.925 546.604" stroke="#263238" stroke-linecap="round" stroke-linejoin="round"/>
</g>
<path id="Path 1799" d="M102.61 517.694L106.691 501.911L121.191 507.924L119.764 521.053L102.61 517.694Z" fill="white" stroke="#263238" stroke-linecap="round" stroke-linejoin="round"/>
<path id="Path 1800" d="M104.018 513.703C104.018 513.703 109.436 503.789 109.436 501.403C109.436 501.403 115.955 498.08 114.854 492.825C113.753 487.57 112.886 484.301 112.886 484.301L114.692 481.285C114.692 481.285 120.976 479.913 119.062 475.867C117.148 471.821 107.938 477.456 101.69 478.558C95.4422 479.66 86.9542 482.368 89.6992 488.689L89.0852 490.332C89.0852 490.332 83.1072 503.807 104.018 513.703Z" fill="#263238" stroke="#263238" stroke-linecap="round" stroke-linejoin="round"/>
<path id="Path 1801" d="M99.1792 523.256L101.364 514.856C101.364 514.856 115.45 515.235 122.149 521.393V528.039L99.1792 523.256Z" fill="#0071BC" stroke="#263238" stroke-linecap="round" stroke-linejoin="round"/>
<path id="Path 1802" d="M110.556 506.046C110.556 506.046 116.461 514.858 125.129 511.626C131.251 509.314 125.978 500.791 125.978 500.791C125.978 500.791 128.922 499.437 128.795 497.757C128.668 496.077 123.847 492.466 123.847 492.466C123.847 492.466 122.98 486.866 121.337 485.748L114.728 481.324C114.728 481.324 107.505 481.071 107.252 482.407C106.999 483.743 111.658 488.348 111.658 488.348C111.658 488.348 112.128 498.172 110.881 498.804C109.634 499.436 106.33 498.479 106.33 498.479C106.33 498.479 99.9372 495.933 101.021 501.458C102.105 506.983 108.046 508.737 110.556 506.046Z" fill="white" stroke="#263238" stroke-linecap="round" stroke-linejoin="round"/>
<path id="Path 1803" d="M121.987 493.369C122.294 494.2 122.258 494.994 121.987 495.175C121.716 495.356 121.087 494.742 120.777 493.911C120.467 493.08 120.488 492.286 120.777 492.105C121.066 491.924 121.662 492.539 121.987 493.369Z" fill="#263238"/>
<path id="Path 1804" d="M117.201 489.848C117.586 489.366 118.141 489.048 118.752 488.961C119.363 488.874 119.984 489.023 120.488 489.379" stroke="#263238" stroke-width="0.75" stroke-linecap="round" stroke-linejoin="round"/>
<path id="Path 1805" d="M122.492 503.826C122.492 503.826 124.785 504.675 125.887 503.645" stroke="#263238" stroke-width="0.75" stroke-linecap="round" stroke-linejoin="round"/>
<path id="Path 1806" d="M148.948 722.134L150.104 729.534C158.646 738.31 168.578 735.313 169.047 739.234C169.516 743.155 155.647 742.466 150.32 742.466C144.993 742.466 135.765 744.272 133.92 741.094C132.999 739.469 135.599 735.315 136.575 731.577C137.171 729.258 137.287 726.843 136.918 724.477L148.948 722.134Z" fill="#263238" stroke="#263238" stroke-linecap="round" stroke-linejoin="round"/>
<path id="Path 1807" d="M61.0942 722.134L56.7062 729.534C65.2482 738.31 75.1802 735.313 75.6492 739.234C76.1182 743.155 62.2492 742.466 56.9402 742.466C51.6312 742.466 42.3812 744.274 40.5252 741.095C39.6042 739.47 47.2252 724.481 47.2252 724.481L61.0942 722.134Z" fill="#263238" stroke="#263238" stroke-linecap="round" stroke-linejoin="round"/>
<path id="Path 1808" d="M138.745 592.185C138.745 592.185 139.973 601.955 138.745 605.693C138.745 605.693 156.93 645.783 157.545 663.66C157.653 666.928 151.062 726.142 151.062 726.142C151.062 726.142 145.825 730.404 135.662 726.142C135.662 726.142 133.856 683.669 136.294 666.73C136.294 666.73 123.653 636.03 120.041 626.55C116.429 617.07 114.967 597.133 114.967 597.133L138.745 592.185Z" fill="#999999" stroke="#263238" stroke-linecap="round" stroke-linejoin="round"/>
<path id="Path 1809" opacity="0.3" d="M119.928 626.551C123.54 635.959 136.181 666.731 136.181 666.731C133.707 683.67 135.549 726.143 135.549 726.143C145.716 730.405 150.949 726.143 150.949 726.143C150.949 726.143 151.13 724.643 151.4 722.134C151.4 722.134 139.156 730.334 137.892 717.078C136.628 703.822 142.244 675.544 142.892 667.291C143.54 659.038 129.457 643.472 133.646 632.005C137.835 620.538 138.63 592.276 138.63 592.276L114.781 597.226C114.781 597.226 116.226 617.142 119.928 626.551Z" fill="black"/>
<path id="Path 1810" d="M146.384 664.329C146.384 664.329 148.822 669.929 152.777 670.252" stroke="#263238" stroke-width="0.75" stroke-linecap="round" stroke-linejoin="round"/>
<path id="Path 1811" d="M136.252 618.605C133.56 623.687 129.954 628.23 125.616 632.005" stroke="#263238" stroke-width="0.75" stroke-linecap="round" stroke-linejoin="round"/>
<path id="Path 1812" d="M136.253 595.725C136.253 595.725 133.942 616.525 123.305 630.849C112.668 645.173 102.971 672.889 94.6642 679.372C86.3572 685.855 61.3832 726.035 61.3832 726.035C61.3832 726.035 50.5482 733.782 43.8302 725.114C43.8302 725.114 64.6302 683.056 77.5632 666.894C77.5632 666.894 90.4932 635.653 94.6632 626.552C94.6632 626.552 91.8822 614.218 101.128 598.038L136.253 595.725Z" fill="#999999" stroke="#263238" stroke-linecap="round" stroke-linejoin="round"/>
<path id="Path 1813" opacity="0.3" d="M51.4512 724.789C50.8372 713.394 69.3112 690.589 82.1512 664.329C94.9912 638.069 111.767 633.919 102.828 632.004C100.959 631.526 99.2239 630.627 97.7559 629.375C96.2879 628.123 95.126 626.552 94.3592 624.781C94.4076 625.388 94.4921 625.991 94.6122 626.587C90.4412 635.616 77.5122 666.929 77.5122 666.929C64.5822 683.091 43.7792 725.149 43.7792 725.149C44.5467 726.199 45.5149 727.086 46.6278 727.759C47.7406 728.431 48.976 728.877 50.2622 729.068C50.7583 728.483 51.1217 727.798 51.3275 727.059C51.5332 726.32 51.5765 725.545 51.4542 724.788L51.4512 724.789Z" fill="black"/>
<path id="Path 1814" d="M80.7922 668.5C80.7922 668.5 79.4022 675.2 83.7922 678.215" stroke="#263238" stroke-width="0.75" stroke-linecap="round" stroke-linejoin="round"/>
<path id="Path 1815" d="M103.856 603.868C103.008 603.793 102.185 603.54 101.441 603.126C100.696 602.712 100.048 602.146 99.5365 601.465C99.0255 600.784 98.6636 600.002 98.4743 599.172C98.2851 598.342 98.2728 597.481 98.4382 596.645C98.8944 594.514 98.8944 592.311 98.4382 590.18C94.7182 571.562 83.7202 537.68 90.9802 527.806C101.147 513.937 121.932 520.872 128.903 531.039C135.203 540.285 143.043 577.431 143.025 594.153C143.014 595.443 142.594 596.696 141.825 597.732C141.055 598.767 139.977 599.531 138.745 599.914C127.478 603.463 115.632 604.805 103.856 603.868V603.868Z" fill="#0071BC" stroke="#263238" stroke-linecap="round" stroke-linejoin="round"/>
<path id="Path 1816" d="M172.279 478.237C173.566 476.986 174.522 475.434 175.06 473.722C175.53 471.465 176.703 458.065 178.274 458.679C179.845 459.293 178.96 465.144 178.96 465.144C178.96 465.144 185.06 453.677 185.84 454.309C186.62 454.941 185.063 458.282 185.063 458.282C185.063 458.282 187.844 454.67 188.675 455.049C189.506 455.428 186.869 460.737 186.869 460.737C186.869 460.737 189.65 458.119 190.481 458.588C191.312 459.057 187.411 465.522 187.411 465.522C187.411 465.522 191.023 462.434 191.727 463.211C192.431 463.988 187.862 467.811 186.797 470.29C185.248 473.43 183.029 476.191 180.297 478.38L178.04 484.917L172.279 478.237Z" fill="white" stroke="#263238" stroke-linecap="round" stroke-linejoin="round"/>
<g id="Path 1817">
<path d="M98.0412 525.026C98.0412 525.026 104.795 520.584 125.129 520.078C128.011 520.017 130.802 519.057 133.111 517.333C138.167 513.523 145.337 508.557 149.219 505.324C154.763 500.701 156.605 497.83 171.702 474.516C174.155 475.232 176.308 476.728 177.833 478.778C179.358 480.828 180.173 483.32 180.153 485.875C180.153 485.875 166.465 509.175 159.693 516.321C152.921 523.467 125.653 538.28 125.653 538.28" fill="#0071BC"/>
<path d="M98.0412 525.026C98.0412 525.026 104.795 520.584 125.129 520.078C128.011 520.017 130.802 519.057 133.111 517.333C138.167 513.523 145.337 508.557 149.219 505.324C154.763 500.701 156.605 497.83 171.702 474.516C174.155 475.232 176.308 476.728 177.833 478.778C179.358 480.828 180.173 483.32 180.153 485.875C180.153 485.875 166.465 509.175 159.693 516.321C152.921 523.467 125.653 538.28 125.653 538.28" stroke="#263238" stroke-linecap="round" stroke-linejoin="round"/>
</g>
<path id="Path 1818" d="M127.747 540.917C124.882 548.223 119.765 554.428 113.138 558.632" stroke="#263238" stroke-width="0.75" stroke-linecap="round" stroke-linejoin="round"/>
<path id="Path 1819" d="M102.231 573.946L98.2762 594.37" stroke="#263238" stroke-width="0.75" stroke-linecap="round" stroke-linejoin="round"/>
<path id="Path 1820" d="M136.614 669.475C137.129 672.371 138.264 675.121 139.94 677.538C141.617 679.954 143.797 681.98 146.329 683.475" stroke="#263238" stroke-width="0.75" stroke-linecap="round" stroke-linejoin="round"/>
<path id="Path 1821" d="M256.431 544.312C255.763 548.267 255.113 552.222 254.445 556.158" stroke="#263238" stroke-width="0.75" stroke-linecap="round" stroke-linejoin="round"/>
</g>
</g>
</g>
</g>
<defs>
<clipPath id="clip0_170:270">
<rect width="807.9" height="773.306" fill="white"/>
</clipPath>
</defs>
</svg>
