<svg width="444" height="432" fill="none" xmlns="http://www.w3.org/2000/svg"><path d="M345.52 258.43v-23.7h51.82a46.056 46.056 0 0 0 33.92-14.6 46.588 46.588 0 0 0 .93-63L432 157 299.83 10.42a29 29 0 0 0-43.64.58L133 155a45.807 45.807 0 0 0-10.258 15.097A45.804 45.804 0 0 0 119.19 188a46.9 46.9 0 0 0 12.58 32 45.996 45.996 0 0 0 34.09 14.76h62.72v6.12c0 25.87-11.75 50.74-33.08 70-20.9 18.89-48.4 29.72-75.46 29.72-38.86 0-76.06-21.56-92.56-53.65a14.606 14.606 0 0 0-8.9-7.29 14.371 14.371 0 0 0-4-.59A14.54 14.54 0 0 0 .72 297.84c8.58 37.08 30.48 70.87 61.77 95.24a180.509 180.509 0 0 0 110.38 38.1c95.13-.01 172.65-77.5 172.65-172.75zm-179.66-52.75a17.558 17.558 0 0 1-12.501-5.161A17.56 17.56 0 0 1 148.24 188a17.17 17.17 0 0 1 5.86-13L278.26 29.88l132.22 146.54a17.255 17.255 0 0 1 4.47 11.58 17.587 17.587 0 0 1-5.124 12.506 17.573 17.573 0 0 1-12.486 5.174H165.86zM80.25 370.16a147.793 147.793 0 0 1-12.47-10.88A137.715 137.715 0 0 0 120 369.64c34.17 0 68.77-13.57 94.94-37.22 27.5-24.86 42.64-57.38 42.64-91.57v-6.12h58.89v23.7c0 79.23-64.46 143.69-143.69 143.69a151.36 151.36 0 0 1-92.53-31.96z" fill="#000"/></svg>