<svg xmlns="http://www.w3.org/2000/svg" width="112.51" height="112.841"><defs><filter id="a" x="45.224" y="0" width="21.731" height="30.051" filterUnits="userSpaceOnUse"><feOffset dy="3"/><feGaussianBlur stdDeviation="3" result="blur"/><feFlood flood-color="#fff" flood-opacity=".251"/><feComposite operator="in" in2="blur"/><feComposite in="SourceGraphic"/></filter><filter id="b" x="0" y="15.218" width="112.51" height="97.623" filterUnits="userSpaceOnUse"><feOffset dy="3"/><feGaussianBlur stdDeviation="3" result="blur-2"/><feFlood flood-color="#fff" flood-opacity=".251"/><feComposite operator="in" in2="blur-2"/><feComposite in="SourceGraphic"/></filter><filter id="c" x="14.972" y=".508" width="28.529" height="28.515" filterUnits="userSpaceOnUse"><feOffset dy="3"/><feGaussianBlur stdDeviation="3" result="blur-3"/><feFlood flood-color="#fff" flood-opacity=".251"/><feComposite operator="in" in2="blur-3"/><feComposite in="SourceGraphic"/></filter><filter id="d" x="68.678" y=".508" width="28.524" height="28.515" filterUnits="userSpaceOnUse"><feOffset dy="3"/><feGaussianBlur stdDeviation="3" result="blur-4"/><feFlood flood-color="#fff" flood-opacity=".251"/><feComposite operator="in" in2="blur-4"/><feComposite in="SourceGraphic"/></filter><filter id="e" x="10.936" y="79.687" width="21.732" height="21.735" filterUnits="userSpaceOnUse"><feOffset dy="3"/><feGaussianBlur stdDeviation="3" result="blur-5"/><feFlood flood-color="#fff" flood-opacity=".251"/><feComposite operator="in" in2="blur-5"/><feComposite in="SourceGraphic"/></filter><filter id="f" x="61.427" y="61.52" width="21.738" height="21.732" filterUnits="userSpaceOnUse"><feOffset dy="3"/><feGaussianBlur stdDeviation="3" result="blur-6"/><feFlood flood-color="#fff" flood-opacity=".251"/><feComposite operator="in" in2="blur-6"/><feComposite in="SourceGraphic"/></filter></defs><g data-name="Group 582"><g filter="url(#a)"><path data-name="Path 1691" d="M56.09 18.051a1.866 1.866 0 0 0 1.866-1.866V7.866a1.866 1.866 0 0 0-3.731 0v8.32a1.866 1.866 0 0 0 1.865 1.865z"/></g><g filter="url(#b)"><path data-name="Path 1692" d="m101.693 70.084-3.3-3.286a6.247 6.247 0 0 0-7.392-1.055l-6.21-6.2.3-.3a6.475 6.475 0 0 0 0-9.142 6.4 6.4 0 0 0-3.247-1.756 6.515 6.515 0 0 0 .266-1.82 6.46 6.46 0 0 0-5.139-6.327 6.513 6.513 0 0 0 .257-1.815 6.454 6.454 0 0 0-5.14-6.323 6.456 6.456 0 0 0-6.9-8.239L52.882 21.49c-1.877-.356-4.221-.591-5.7.758a3.37 3.37 0 0 0-.282.292 6.487 6.487 0 0 0-6.806 1.5 6.418 6.418 0 0 0-1.89 4.573 6.523 6.523 0 0 0 .257 1.815 6.461 6.461 0 0 0-5.137 6.32 6.5 6.5 0 0 0 .257 1.82 6.469 6.469 0 0 0-4.01 9.982 6.465 6.465 0 0 0-2.483 10.694l.3.3-6.211 6.2a6.237 6.237 0 0 0-7.057 1.216l-3.3 3.288a6.232 6.232 0 0 0 0 8.8l4.115 4.11a1.866 1.866 0 0 0 2.637-2.64l-4.115-4.11a2.5 2.5 0 0 1 0-3.52l3.3-3.288a2.5 2.5 0 0 1 3.043-.373 1.879 1.879 0 0 0 .235.287 1.856 1.856 0 0 0 .536.373l18.911 18.884a1.838 1.838 0 0 0 .9.909 2.5 2.5 0 0 1-.1 3.406l-3.294 3.291a2.506 2.506 0 0 1-3.527 0l-4.115-4.116a1.865 1.865 0 0 0-2.638 2.638l4.118 4.119a6.246 6.246 0 0 0 8.8 0l3.3-3.293a6.238 6.238 0 0 0 .873-7.7l6.99-6.982.022-.023c.8-.827 3.029-.673 5.185-.523a26.835 26.835 0 0 0 4.907.033l7.655 7.646a6.235 6.235 0 0 0 1.058 7.385l3.3 3.293a6.238 6.238 0 0 0 8.8 0l19.995-19.97a6.231 6.231 0 0 0 0-8.8zM52.187 25.16l8.092 1.532-4.844 4.842a11.76 11.76 0 0 1-2.9-2.109c-1.542-1.475-2.645-3.178-2.746-4.241a1.629 1.629 0 0 1-.008-.184 6.321 6.321 0 0 1 2.406.16zm-9.457 1.516a2.752 2.752 0 0 1 3.481-.33c.605 2.537 2.77 4.837 3.743 5.769a13.815 13.815 0 0 0 5.375 3.33 2.738 2.738 0 0 1-4.185 3.5l-8.413-8.4a2.747 2.747 0 0 1 0-3.867zm-4.875 8.141a2.751 2.751 0 0 1 3.876 0l6.774 6.761a2.742 2.742 0 0 1-3.881 3.874l-5.139-5.138-.025-.024-1.608-1.607a2.737 2.737 0 0 1 0-3.868zm-4.884 8.143a2.76 2.76 0 0 1 3.864-.013L41.99 48.1a2.738 2.738 0 0 1-3.88 3.86l-1.869-1.867-3.269-3.265a2.744 2.744 0 0 1 0-3.872zm-3.249 9.778a2.758 2.758 0 0 1 3.882 0l1.871 1.869a2.738 2.738 0 0 1-3.881 3.863l-.234-.233-.009-.009-.011-.01-1.617-1.61a2.74 2.74 0 0 1 0-3.869zm38.017 21.2a1.865 1.865 0 0 0-2.638 0l-1.66 1.658c-1.577 1.577-4.435 1.379-7.2 1.187-3-.209-6.1-.424-8.112 1.638l-6.871 6.863-17.182-17.163 6.081-6.07a6.47 6.47 0 0 0 9.848-5.517v-.048h.048a6.453 6.453 0 0 0 6.467-6.46v-.048h.049a6.446 6.446 0 0 0 6.467-6.509h.05a6.471 6.471 0 0 0 5.524-9.832l5.33-5.328a2.737 2.737 0 0 1 1.4-.746c.056-.006.11-.015.165-.026a2.734 2.734 0 0 1 2.322 4.64l-1.623 1.617-.016.016-1.878 1.866a1.865 1.865 0 0 0 2.636 2.64l1.63-1.628.246-.245a2.748 2.748 0 0 1 3.871.009 2.738 2.738 0 0 1 0 3.867l-1.632 1.636-1.869 1.862a1.866 1.866 0 0 0 2.633 2.644l1.878-1.87a2.738 2.738 0 0 1 3.875 3.87l-3.255 3.256a1.866 1.866 0 1 0 2.639 2.638l1.6-1.6.028-.025a2.738 2.738 0 0 1 3.876 3.869l-1.622 1.62-2.574 2.571a1.866 1.866 0 0 0 2.637 2.64l1.259-1.258 6.034 6.027L71.01 85.36l-6.156-6.149a7.336 7.336 0 0 0 1.225-.986l1.659-1.657a1.865 1.865 0 0 0 0-2.638zm31.319 2.31-19.995 19.97a2.507 2.507 0 0 1-3.526 0l-3.3-3.293a2.495 2.495 0 0 1 0-3.515l19.995-19.97a2.507 2.507 0 0 1 3.527 0l3.3 3.286a2.5 2.5 0 0 1 0 3.521z"/></g><g filter="url(#c)"><path data-name="Path 1693" d="M31.319 16.475a1.866 1.866 0 0 0 2.631-2.641l-6.8-6.784a1.866 1.866 0 1 0-2.636 2.641z"/></g><g filter="url(#d)"><path data-name="Path 1694" d="M79.547 17.02a1.86 1.86 0 0 0 1.318-.546l6.793-6.784a1.866 1.866 0 0 0-2.637-2.64l-6.791 6.785a1.865 1.865 0 0 0 1.318 3.185z"/></g><g filter="url(#e)"><path data-name="Path 1695" d="M20.475 86.241a1.865 1.865 0 0 0 .023 2.638l.005.005a1.865 1.865 0 1 0-.028-2.643z"/></g><g filter="url(#f)"><path data-name="Path 1696" d="M72.3 71.25a1.866 1.866 0 1 0-.838-3.532l-.01.005a1.864 1.864 0 0 0 .849 3.527z"/></g></g></svg>