<svg xmlns="http://www.w3.org/2000/svg" width="109.133" height="109.133"><defs><filter id="a" x="78.982" y="18.227" width="30.151" height="30.151" filterUnits="userSpaceOnUse"><feOffset dy="3"/><feGaussianBlur stdDeviation="3" result="blur"/><feFlood flood-color="#fff" flood-opacity=".251"/><feComposite operator="in" in2="blur"/><feComposite in="SourceGraphic"/></filter><filter id="b" x="0" y="68.349" width="30.151" height="30.151" filterUnits="userSpaceOnUse"><feOffset dy="3"/><feGaussianBlur stdDeviation="3" result="blur-2"/><feFlood flood-color="#fff" flood-opacity=".251"/><feComposite operator="in" in2="blur-2"/><feComposite in="SourceGraphic"/></filter><filter id="c" x="66.83" y="13.668" width="34.141" height="27.365" filterUnits="userSpaceOnUse"><feOffset dy="3"/><feGaussianBlur stdDeviation="3" result="blur-3"/><feFlood flood-color="#fff" flood-opacity=".251"/><feComposite operator="in" in2="blur-3"/><feComposite in="SourceGraphic"/></filter><filter id="d" x="62.274" y="78.982" width="30.151" height="30.151" filterUnits="userSpaceOnUse"><feOffset dy="3"/><feGaussianBlur stdDeviation="3" result="blur-4"/><feFlood flood-color="#fff" flood-opacity=".251"/><feComposite operator="in" in2="blur-4"/><feComposite in="SourceGraphic"/></filter><filter id="e" x="50.122" y="74.423" width="34.141" height="27.366" filterUnits="userSpaceOnUse"><feOffset dy="3"/><feGaussianBlur stdDeviation="3" result="blur-5"/><feFlood flood-color="#fff" flood-opacity=".251"/><feComposite operator="in" in2="blur-5"/><feComposite in="SourceGraphic"/></filter><filter id="f" x="39.491" y="41.01" width="30.151" height="30.151" filterUnits="userSpaceOnUse"><feOffset dy="3"/><feGaussianBlur stdDeviation="3" result="blur-6"/><feFlood flood-color="#fff" flood-opacity=".251"/><feComposite operator="in" in2="blur-6"/><feComposite in="SourceGraphic"/></filter><filter id="g" x="30.377" y="34.935" width="31.104" height="28.882" filterUnits="userSpaceOnUse"><feOffset dy="3"/><feGaussianBlur stdDeviation="3" result="blur-7"/><feFlood flood-color="#fff" flood-opacity=".251"/><feComposite operator="in" in2="blur-7"/><feComposite in="SourceGraphic"/></filter><filter id="h" x="56.198" y="39.491" width="51.415" height="51.415" filterUnits="userSpaceOnUse"><feOffset dy="3"/><feGaussianBlur stdDeviation="3" result="blur-8"/><feFlood flood-color="#fff" flood-opacity=".251"/><feComposite operator="in" in2="blur-8"/><feComposite in="SourceGraphic"/></filter><filter id="i" x="66.831" y="45.566" width="30.151" height="30.151" filterUnits="userSpaceOnUse"><feOffset dy="3"/><feGaussianBlur stdDeviation="3" result="blur-9"/><feFlood flood-color="#fff" flood-opacity=".251"/><feComposite operator="in" in2="blur-9"/><feComposite in="SourceGraphic"/></filter><filter id="j" x="63.793" y="60.755" width="36.227" height="30.151" filterUnits="userSpaceOnUse"><feOffset dy="3"/><feGaussianBlur stdDeviation="3" result="blur-10"/><feFlood flood-color="#fff" flood-opacity=".251"/><feComposite operator="in" in2="blur-10"/><feComposite in="SourceGraphic"/></filter><filter id="k" x="19.745" y="57.717" width="51.415" height="51.415" filterUnits="userSpaceOnUse"><feOffset dy="3"/><feGaussianBlur stdDeviation="3" result="blur-11"/><feFlood flood-color="#fff" flood-opacity=".251"/><feComposite operator="in" in2="blur-11"/><feComposite in="SourceGraphic"/></filter><filter id="l" x="30.378" y="63.793" width="30.151" height="30.151" filterUnits="userSpaceOnUse"><feOffset dy="3"/><feGaussianBlur stdDeviation="3" result="blur-12"/><feFlood flood-color="#fff" flood-opacity=".251"/><feComposite operator="in" in2="blur-12"/><feComposite in="SourceGraphic"/></filter><filter id="m" x="27.34" y="78.982" width="36.227" height="30.151" filterUnits="userSpaceOnUse"><feOffset dy="3"/><feGaussianBlur stdDeviation="3" result="blur-13"/><feFlood flood-color="#fff" flood-opacity=".251"/><feComposite operator="in" in2="blur-13"/><feComposite in="SourceGraphic"/></filter><filter id="n" x="0" y="19.745" width="51.415" height="51.415" filterUnits="userSpaceOnUse"><feOffset dy="3"/><feGaussianBlur stdDeviation="3" result="blur-14"/><feFlood flood-color="#fff" flood-opacity=".251"/><feComposite operator="in" in2="blur-14"/><feComposite in="SourceGraphic"/></filter><filter id="o" x="10.632" y="25.821" width="30.151" height="30.151" filterUnits="userSpaceOnUse"><feOffset dy="3"/><feGaussianBlur stdDeviation="3" result="blur-15"/><feFlood flood-color="#fff" flood-opacity=".251"/><feComposite operator="in" in2="blur-15"/><feComposite in="SourceGraphic"/></filter><filter id="p" x="7.594" y="41.01" width="36.227" height="30.151" filterUnits="userSpaceOnUse"><feOffset dy="3"/><feGaussianBlur stdDeviation="3" result="blur-16"/><feFlood flood-color="#fff" flood-opacity=".251"/><feComposite operator="in" in2="blur-16"/><feComposite in="SourceGraphic"/></filter><filter id="q" x="36.453" y="0" width="51.415" height="51.415" filterUnits="userSpaceOnUse"><feOffset dy="3"/><feGaussianBlur stdDeviation="3" result="blur-17"/><feFlood flood-color="#fff" flood-opacity=".251"/><feComposite operator="in" in2="blur-17"/><feComposite in="SourceGraphic"/></filter><filter id="r" x="47.085" y="6.075" width="30.151" height="30.151" filterUnits="userSpaceOnUse"><feOffset dy="3"/><feGaussianBlur stdDeviation="3" result="blur-18"/><feFlood flood-color="#fff" flood-opacity=".251"/><feComposite operator="in" in2="blur-18"/><feComposite in="SourceGraphic"/></filter><filter id="s" x="44.048" y="21.264" width="36.227" height="30.151" filterUnits="userSpaceOnUse"><feOffset dy="3"/><feGaussianBlur stdDeviation="3" result="blur-19"/><feFlood flood-color="#fff" flood-opacity=".251"/><feComposite operator="in" in2="blur-19"/><feComposite in="SourceGraphic"/></filter><filter id="t" x="25.928" y="15.189" width="31.564" height="30.045" filterUnits="userSpaceOnUse"><feOffset dy="3"/><feGaussianBlur stdDeviation="3" result="blur-20"/><feFlood flood-color="#fff" flood-opacity=".251"/><feComposite operator="in" in2="blur-20"/><feComposite in="SourceGraphic"/></filter><filter id="u" x="60.755" y="27.342" width="30.151" height="33.187" filterUnits="userSpaceOnUse"><feOffset dy="3"/><feGaussianBlur stdDeviation="3" result="blur-21"/><feFlood flood-color="#fff" flood-opacity=".251"/><feComposite operator="in" in2="blur-21"/><feComposite in="SourceGraphic"/></filter><filter id="v" x="48.919" y="60.614" width="29.522" height="27.399" filterUnits="userSpaceOnUse"><feOffset dy="3"/><feGaussianBlur stdDeviation="3" result="blur-22"/><feFlood flood-color="#fff" flood-opacity=".251"/><feComposite operator="in" in2="blur-22"/><feComposite in="SourceGraphic"/></filter><filter id="w" x="9.113" y="72.906" width="31.67" height="21.038" filterUnits="userSpaceOnUse"><feOffset dy="3"/><feGaussianBlur stdDeviation="3" result="blur-23"/><feFlood flood-color="#fff" flood-opacity=".251"/><feComposite operator="in" in2="blur-23"/><feComposite in="SourceGraphic"/></filter><filter id="x" x="10.632" y="0" width="30.151" height="30.151" filterUnits="userSpaceOnUse"><feOffset dy="3"/><feGaussianBlur stdDeviation="3" result="blur-24"/><feFlood flood-color="#fff" flood-opacity=".251"/><feComposite operator="in" in2="blur-24"/><feComposite in="SourceGraphic"/></filter><filter id="y" x="15.189" y="9.113" width="21.038" height="31.67" filterUnits="userSpaceOnUse"><feOffset dy="3"/><feGaussianBlur stdDeviation="3" result="blur-25"/><feFlood flood-color="#fff" flood-opacity=".251"/><feComposite operator="in" in2="blur-25"/><feComposite in="SourceGraphic"/></filter></defs><g data-name="Group 581"><g filter="url(#a)"><path data-name="Path 1666" d="M94.059 24.23a6.075 6.075 0 1 0 6.075 6.075 6.082 6.082 0 0 0-6.075-6.075zm0 9.113a3.038 3.038 0 1 1 3.038-3.038 3.041 3.041 0 0 1-3.038 3.038z"/></g><g filter="url(#b)"><path data-name="Path 1667" d="M15.075 74.35a6.075 6.075 0 1 0 6.075 6.075 6.082 6.082 0 0 0-6.075-6.075zm0 9.113a3.038 3.038 0 1 1 3.038-3.038 3.041 3.041 0 0 1-3.038 3.038z"/></g><g filter="url(#c)"><path data-name="Path 1668" d="m91.115 26.15-13.1-6.326a1.519 1.519 0 0 0-1.32 2.736l13.1 6.326a1.519 1.519 0 0 0 1.32-2.736z"/></g><g filter="url(#d)"><path data-name="Path 1669" d="M77.352 84.983a6.076 6.076 0 1 0 6.075 6.076 6.082 6.082 0 0 0-6.075-6.076zm0 9.113a3.038 3.038 0 1 1 3.038-3.038 3.041 3.041 0 0 1-3.038 3.038z"/></g><g filter="url(#e)"><path data-name="Path 1670" d="m74.408 86.9-13.1-6.326a1.519 1.519 0 0 0-1.32 2.736l13.1 6.326a1.519 1.519 0 0 0 1.32-2.736z"/></g><g filter="url(#f)"><path data-name="Path 1671" d="M54.562 47.01a6.075 6.075 0 1 0 6.075 6.075 6.082 6.082 0 0 0-6.075-6.075zm0 9.113a3.038 3.038 0 1 1 3.038-3.038 3.041 3.041 0 0 1-3.038 3.038z"/></g><g filter="url(#g)"><path data-name="Path 1672" d="m51.893 49.096-10.065-7.845a1.52 1.52 0 0 0-1.868 2.4l10.066 7.845a1.52 1.52 0 1 0 1.868-2.4z"/></g><g filter="url(#h)"><path data-name="Path 1673" d="M81.911 45.487a16.708 16.708 0 1 0 16.708 16.708 16.727 16.727 0 0 0-16.708-16.708zm0 30.377a13.67 13.67 0 1 1 13.67-13.67 13.685 13.685 0 0 1-13.67 13.67z"/></g><g filter="url(#i)"><path data-name="Path 1674" d="M81.902 51.57a6.075 6.075 0 1 0 6.075 6.076 6.082 6.082 0 0 0-6.075-6.076zm0 9.113a3.038 3.038 0 1 1 3.038-3.038 3.041 3.041 0 0 1-3.038 3.038z"/></g><g filter="url(#j)"><path data-name="Path 1675" d="M86.31 66.753h-8.812a4.65 4.65 0 0 0-4.707 4.579v4a1.52 1.52 0 0 0 .758 1.315 16.623 16.623 0 0 0 16.711 0 1.517 1.517 0 0 0 .758-1.314v-4a4.65 4.65 0 0 0-4.708-4.58zm1.669 7.678a13.772 13.772 0 0 1-12.151 0v-3.1a1.612 1.612 0 0 1 1.669-1.543h8.812a1.612 1.612 0 0 1 1.669 1.543v3.1z"/></g><g filter="url(#k)"><path data-name="Path 1676" d="M45.451 63.717a16.708 16.708 0 1 0 16.708 16.708 16.727 16.727 0 0 0-16.708-16.708zm0 30.377a13.67 13.67 0 1 1 13.67-13.67 13.685 13.685 0 0 1-13.67 13.67z"/></g><g filter="url(#l)"><path data-name="Path 1677" d="M45.452 69.79a6.075 6.075 0 1 0 6.075 6.075 6.082 6.082 0 0 0-6.075-6.075zm0 9.113a3.038 3.038 0 1 1 3.038-3.038 3.041 3.041 0 0 1-3.038 3.038z"/></g><g filter="url(#m)"><path data-name="Path 1678" d="M49.86 84.983h-8.812a4.65 4.65 0 0 0-4.707 4.579v4a1.52 1.52 0 0 0 .758 1.315 16.623 16.623 0 0 0 16.711 0 1.517 1.517 0 0 0 .758-1.314v-4a4.65 4.65 0 0 0-4.708-4.58zm1.669 7.678a13.773 13.773 0 0 1-12.151 0v-3.1a1.612 1.612 0 0 1 1.669-1.543h8.812a1.612 1.612 0 0 1 1.669 1.543v3.1z"/></g><g filter="url(#n)"><path data-name="Path 1679" d="M25.708 25.743a16.708 16.708 0 1 0 16.708 16.708 16.727 16.727 0 0 0-16.708-16.708zm0 30.378a13.67 13.67 0 1 1 13.67-13.67 13.685 13.685 0 0 1-13.67 13.67z"/></g><g filter="url(#o)"><path data-name="Path 1680" d="M25.709 31.817a6.075 6.075 0 1 0 6.075 6.075 6.082 6.082 0 0 0-6.075-6.075zm0 9.113a3.038 3.038 0 1 1 3.038-3.038 3.041 3.041 0 0 1-3.038 3.038z"/></g><g filter="url(#p)"><path data-name="Path 1681" d="M30.116 47.01h-8.812a4.65 4.65 0 0 0-4.707 4.579v4a1.52 1.52 0 0 0 .758 1.315 16.623 16.623 0 0 0 16.711 0 1.517 1.517 0 0 0 .758-1.314v-4a4.65 4.65 0 0 0-4.708-4.58zm1.669 7.678a13.772 13.772 0 0 1-12.151 0v-3.1a1.612 1.612 0 0 1 1.669-1.543h8.812a1.612 1.612 0 0 1 1.669 1.543v3.1z"/></g><g filter="url(#q)"><path data-name="Path 1682" d="M62.158 6a16.708 16.708 0 1 0 16.708 16.708A16.727 16.727 0 0 0 62.158 6zm0 30.378a13.67 13.67 0 1 1 13.67-13.67 13.685 13.685 0 0 1-13.67 13.67z"/></g><g filter="url(#r)"><path data-name="Path 1683" d="M62.159 12.073a6.075 6.075 0 1 0 6.076 6.076 6.082 6.082 0 0 0-6.076-6.076zm0 9.113a3.038 3.038 0 1 1 3.038-3.038 3.041 3.041 0 0 1-3.038 3.038z"/></g><g filter="url(#s)"><path data-name="Path 1684" d="M66.567 27.267h-8.812a4.65 4.65 0 0 0-4.707 4.579v4a1.52 1.52 0 0 0 .758 1.315 16.623 16.623 0 0 0 16.711 0 1.517 1.517 0 0 0 .758-1.314v-4a4.65 4.65 0 0 0-4.708-4.58zm1.669 7.678a13.773 13.773 0 0 1-12.151 0v-3.1a1.612 1.612 0 0 1 1.669-1.543h8.812a1.612 1.612 0 0 1 1.669 1.543v3.1z"/></g><g filter="url(#t)"><path data-name="Path 1685" d="M48.13 21.723a1.521 1.521 0 0 0-2.142-.166L35.46 30.56a1.518 1.518 0 1 0 1.974 2.307L47.96 23.86a1.518 1.518 0 0 0 .17-2.137z"/></g><g filter="url(#u)"><path data-name="Path 1686" d="m81.6 46.098-9.113-12.151a1.518 1.518 0 0 0-2.43 1.821l9.113 12.151a1.518 1.518 0 0 0 2.43-1.821z"/></g><g filter="url(#v)"><path data-name="Path 1687" d="M69.141 67.218a1.519 1.519 0 0 0-2.126-.3l-8.484 6.363a1.519 1.519 0 0 0 1.823 2.429l8.484-6.363a1.517 1.517 0 0 0 .303-2.129z"/></g><g filter="url(#w)"><path data-name="Path 1688" d="M30.261 78.91H19.629a1.519 1.519 0 1 0 0 3.038h10.632a1.519 1.519 0 0 0 0-3.038z"/></g><g filter="url(#x)"><path data-name="Path 1689" d="M25.709 6a6.075 6.075 0 1 0 6.075 6.075A6.082 6.082 0 0 0 25.709 6zm0 9.113a3.038 3.038 0 1 1 3.038-3.038 3.041 3.041 0 0 1-3.038 3.038z"/></g><g filter="url(#y)"><path data-name="Path 1690" d="M25.703 15.11a1.518 1.518 0 0 0-1.519 1.519v10.632a1.519 1.519 0 0 0 3.038 0V16.629a1.518 1.518 0 0 0-1.519-1.519z"/></g></g></svg>