<svg xmlns="http://www.w3.org/2000/svg" width="130.578" height="96.927"><defs><filter id="a" x="0" y="0" width="130.578" height="96.927" filterUnits="userSpaceOnUse"><feOffset dy="3"/><feGaussianBlur stdDeviation="3" result="blur"/><feFlood flood-color="#fff" flood-opacity=".251"/><feComposite operator="in" in2="blur"/><feComposite in="SourceGraphic"/></filter></defs><g filter="url(#a)" data-name="Group 583"><path data-name="Path 1697" d="m119.406 23.718-23.765-8.032a1.65 1.65 0 1 0-1.056 3.125l23.538 7.955-11.08 5.4a5.006 5.006 0 0 0-1.536-.695l-33.233-8.683a7.111 7.111 0 0 0-14.1 1.331v.036a4.227 4.227 0 0 0 4.243 4.17h5.738a4.2 4.2 0 0 0 3.732-2.229l30.992 8.1L68.3 51.055a6.846 6.846 0 0 1-6.03 0L12.455 26.766 63.086 9.655a6.916 6.916 0 0 1 4.406 0l19.768 6.681a1.65 1.65 0 1 0 1.056-3.125L68.548 6.53a10.238 10.238 0 0 0-6.518 0L11.172 23.718a3.2 3.2 0 0 0-.378 5.908l26.1 12.725a156.008 156.008 0 0 1-6.011 20.7 6.521 6.521 0 0 0 2.091 7.385 82.886 82.886 0 0 0 25.554 13.433 22.165 22.165 0 0 0 13.519 0A82.9 82.9 0 0 0 97.6 70.435a6.52 6.52 0 0 0 2.091-7.385 156.085 156.085 0 0 1-6.011-20.7l12.277-5.986v24.821a4.073 4.073 0 0 0-3.758 4.055v4.806a2.433 2.433 0 0 0 .8 1.8l-.613 9.262a3.143 3.143 0 0 0 3.133 3.347h4.181a3.143 3.143 0 0 0 3.133-3.347l-.612-9.262a2.432 2.432 0 0 0 .8-1.8V65.24a4.073 4.073 0 0 0-3.758-4.055V36.33a5 5 0 0 0-.222-1.464l10.748-5.24a3.2 3.2 0 0 0-.378-5.908zm-51.248 1.309h-5.737a.932.932 0 0 1-.944-.88v-.028a3.778 3.778 0 0 1 1.2-2.777A3.818 3.818 0 0 1 69.1 23.93a.937.937 0 0 1-.942 1.097zm26.58 33.784c-8.91 6.974-21.556 11.962-25.911 12.793a1.65 1.65 0 1 0 .618 3.24c4.556-.869 17.039-5.72 26.409-12.732.23.657.5 1.406.741 2.072a3.231 3.231 0 0 1-1.031 3.659A79.856 79.856 0 0 1 71.037 80.73a18.87 18.87 0 0 1-11.5 0A79.861 79.861 0 0 1 35.01 67.843a3.23 3.23 0 0 1-1.031-3.659l.029-.08c.24-.657.505-1.4.712-1.992 9.149 6.845 21.6 11.816 26.408 12.734a1.65 1.65 0 0 0 .618-3.24c-4.112-.784-16.8-5.667-25.91-12.794a154.986 154.986 0 0 0 4.111-14.97L60.829 54.02a10.116 10.116 0 0 0 8.921 0l20.877-10.178a154.929 154.929 0 0 0 4.112 14.97zm10.954 22.351.574-8.672h2.687l.573 8.672zm4.026-15.92v3.949l-4.218.001v-3.949a.782.782 0 0 1 .772-.772h2.673a.783.783 0 0 1 .773.771z"/></g></svg>