<svg xmlns="http://www.w3.org/2000/svg" width="108.203" height="90.368"><g data-name="freepik--arrow--inject-3"><path data-name="Path 2521" d="M13.567 11.407v4.525l6.16-3.56a2.316 2.316 0 0 0 1.032-1.811V6.949z" fill="#ba68c8"/><path data-name="Path 2522" d="M13.567 11.407v4.525l6.16-3.56a2.316 2.316 0 0 0 1.032-1.811V6.949z" fill="#f7931e"/><path data-name="Path 2523" d="M.003 18.336v4.21c0 .666.464.939 1.032.609l6.655-3.838v-4.515z" fill="#ba68c8"/><path data-name="Path 2524" d="M.003 18.336v4.21c0 .666.464.939 1.032.609l6.655-3.838v-4.515z" fill="#f7931e"/><path data-name="Path 2525" d="m71.562 43.049-.815-1.249-31.131 28.593-1.512-.217.026.036a1.182 1.182 0 0 0 1.6.418l4.292-2.476a6.5 6.5 0 0 0 1.078-.789z" fill="#ba68c8"/><path data-name="Path 2526" d="m71.562 43.049-.815-1.249-31.131 28.593-1.512-.217.026.036a1.182 1.182 0 0 0 1.6.418l4.292-2.476a6.5 6.5 0 0 0 1.078-.789z" fill="#f7931e"/><path data-name="Path 2527" d="M7.69 14.802v4.514l30.409 50.836a.944.944 0 0 0 1.512.217l30.238-27.731a.991.991 0 0 1 1.548.191l27.468 42.012 3.261 4.979a1.212 1.212 0 0 0 .65.516v-4.53l-.66-.516-3.255-4.979-27.459-42.009a.991.991 0 0 0-1.548-.191L39.615 65.842a.949.949 0 0 1-1.512-.217z" fill="#f7931e"/><path data-name="Path 2528" d="M102.786 85.773v4.53a1.259 1.259 0 0 0 1.032-.1l3.323-1.914h.031a2.322 2.322 0 0 0 1.032-1.79v-3.863z" fill="#ba68c8"/><path data-name="Path 2529" d="M102.786 85.773v4.53a1.259 1.259 0 0 0 1.032-.1l3.323-1.914h.031a2.322 2.322 0 0 0 1.032-1.79v-3.863z" fill="#f7931e"/><path data-name="Path 2530" d="m13.567 11.407 6.795-3.921c.578-.335.542-.8-.083-1.032L3.702.082a.913.913 0 0 0-1.29.764l-2.4 17.289c-.093.66.3.924.882.588l6.795-3.921 31.033 51.856 5.108-4.685-30.263-50.561z" fill="#ba68c8"/><path data-name="Path 2531" d="m13.567 11.407 6.795-3.921c.578-.335.542-.8-.083-1.032L3.702.082a.913.913 0 0 0-1.29.764l-2.4 17.289c-.093.66.3.924.882.588l6.795-3.921 31.033 51.856 5.108-4.685-30.263-50.561z" fill="#f7931e"/><path data-name="Path 2532" d="M108.002 81.877 77.309 34.909a1.243 1.243 0 0 0-1.687-.371l-5.546 3.431a1.032 1.032 0 0 1 1.357.335l30.718 46.949a1.285 1.285 0 0 0 1.7.4l3.792-2.188a1.12 1.12 0 0 0 .356-1.589z" fill="#ba68c8"/><path data-name="Path 2533" d="M108.002 81.877 77.309 34.909a1.243 1.243 0 0 0-1.687-.371l-5.546 3.431a1.032 1.032 0 0 1 1.357.335l30.718 46.949a1.285 1.285 0 0 0 1.7.4l3.792-2.188a1.12 1.12 0 0 0 .356-1.589z" fill="#f7931e"/></g></svg>