<svg xmlns="http://www.w3.org/2000/svg" width="135.961" height="143.312"><g data-name="Group 641"><g data-name="Group 642"><g data-name="Group 641" transform="rotate(150 17.01 18.48)"><circle data-name="Ellipse 49" cx="15" cy="15" r="15" fill="#f7931e"/><path data-name="Path 2536" d="M15 30a15 15 0 0 0 15-15 15.259 15.259 0 0 0-1.548-6.643C26.083 21.04 15.641 28.225.874 20.037a15.255 15.255 0 0 0 6.127 7.654A14.682 14.682 0 0 0 15 30z" fill="#fff" opacity=".2"/></g><g data-name="Ellipse 51" transform="rotate(-14.98 55.044 -24.6)" fill="none" stroke="#fff" stroke-linecap="round" stroke-linejoin="round" stroke-width="5" stroke-dasharray="10 100"><circle cx="10" cy="10" r="10" stroke="none"/><circle cx="10" cy="10" r="7.5"/></g></g><g data-name="Group 643"><g data-name="Group 641" transform="rotate(150 10.155 44.064)"><circle data-name="Ellipse 49" cx="15" cy="15" r="15" fill="#f7931e"/><path data-name="Path 2536" d="M15 30a15 15 0 0 0 15-15 15.259 15.259 0 0 0-1.548-6.643C26.083 21.04 15.641 28.225.874 20.037a15.255 15.255 0 0 0 6.127 7.654A14.682 14.682 0 0 0 15 30z" fill="#fff" opacity=".2"/></g><g data-name="Ellipse 51" transform="rotate(-14.98 249.25 .894)" fill="none" stroke="#fff" stroke-linecap="round" stroke-linejoin="round" stroke-width="5" stroke-dasharray="10 100"><circle cx="10" cy="10" r="10" stroke="none"/><circle cx="10" cy="10" r="7.5"/></g></g><g data-name="Group 644"><g data-name="Group 641" transform="rotate(150 3.3 69.646)"><circle data-name="Ellipse 49" cx="15" cy="15" r="15" fill="#f7931e"/><path data-name="Path 2536" d="M15 30a15 15 0 0 0 15-15 15.259 15.259 0 0 0-1.548-6.643C26.083 21.04 15.641 28.225.874 20.037a15.255 15.255 0 0 0 6.127 7.654A14.682 14.682 0 0 0 15 30z" fill="#fff" opacity=".2"/></g><g data-name="Ellipse 51" transform="rotate(-14.98 443.451 26.387)" fill="none" stroke="#fff" stroke-linecap="round" stroke-linejoin="round" stroke-width="5" stroke-dasharray="10 100"><circle cx="10" cy="10" r="10" stroke="none"/><circle cx="10" cy="10" r="7.5"/></g></g><g data-name="Group 645"><g data-name="Group 641" transform="rotate(150 27.045 76.009)"><circle data-name="Ellipse 49" cx="15" cy="15" r="15" fill="#f7931e"/><path data-name="Path 2536" d="M15 30a15 15 0 0 0 15-15 15.259 15.259 0 0 0-1.548-6.643C26.083 21.04 15.641 28.225.874 20.037a15.255 15.255 0 0 0 6.127 7.654A14.682 14.682 0 0 0 15 30z" fill="#fff" opacity=".2"/></g><g data-name="Ellipse 51" transform="rotate(-14.98 467.114 -153.865)" fill="none" stroke="#fff" stroke-linecap="round" stroke-linejoin="round" stroke-width="5" stroke-dasharray="10 100"><circle cx="10" cy="10" r="10" stroke="none"/><circle cx="10" cy="10" r="7.5"/></g></g><g data-name="Group 647"><g data-name="Group 641" transform="rotate(150 50.79 82.371)"><circle data-name="Ellipse 49" cx="15" cy="15" r="15" fill="#f7931e"/><path data-name="Path 2536" d="M15 30a15 15 0 0 0 15-15 15.259 15.259 0 0 0-1.548-6.643C26.083 21.04 15.641 28.225.874 20.037a15.255 15.255 0 0 0 6.127 7.654A14.682 14.682 0 0 0 15 30z" fill="#fff" opacity=".2"/></g><g data-name="Ellipse 51" transform="rotate(-14.98 490.777 -334.122)" fill="none" stroke="#fff" stroke-linecap="round" stroke-linejoin="round" stroke-width="5" stroke-dasharray="10 100"><circle cx="10" cy="10" r="10" stroke="none"/><circle cx="10" cy="10" r="7.5"/></g></g><g data-name="Group 646"><g data-name="Group 641" transform="rotate(150 33.9 50.426)"><circle data-name="Ellipse 49" cx="15" cy="15" r="15" fill="#f7931e"/><path data-name="Path 2536" d="M15 30a15 15 0 0 0 15-15 15.259 15.259 0 0 0-1.548-6.643C26.083 21.04 15.641 28.225.874 20.037a15.255 15.255 0 0 0 6.127 7.654A14.682 14.682 0 0 0 15 30z" fill="#fff" opacity=".2"/></g><g data-name="Ellipse 51" transform="rotate(-14.98 272.912 -179.359)" fill="none" stroke="#fff" stroke-linecap="round" stroke-linejoin="round" stroke-width="5" stroke-dasharray="10 100"><circle cx="10" cy="10" r="10" stroke="none"/><circle cx="10" cy="10" r="7.5"/></g></g></g></svg>