<svg xmlns="http://www.w3.org/2000/svg" width="80.017" height="62.68"><g data-name="Group 44"><g data-name="Group 43"><path data-name="Path 109" d="M56.012 0a5.34 5.34 0 0 0-5.334 5.334v.964L19.504 18.765a1.337 1.337 0 0 0-.838 1.239v18.671a1.333 1.333 0 0 0 .838 1.238L50.673 52.38v.966a5.335 5.335 0 1 0 10.669 0V5.333A5.34 5.34 0 0 0 56.012 0zm2.667 53.345a2.667 2.667 0 0 1-5.335 0v-1.867a1.333 1.333 0 0 0-.839-1.239L21.338 37.772V20.907L52.504 8.44a1.336 1.336 0 0 0 .839-1.239V5.333a2.667 2.667 0 0 1 5.335 0z" fill="#f7931e"/></g></g><g data-name="Group 46"><g data-name="Group 45"><path data-name="Path 110" d="M20 18.67h-9.331a10.669 10.669 0 1 0 0 21.338H20a1.333 1.333 0 0 0 1.334-1.334v-18.67A1.334 1.334 0 0 0 20 18.67zm-1.329 18.667h-8a8 8 0 1 1 0-16h8v16z" fill="#f7931e"/></g></g><g data-name="Group 48"><g data-name="Group 47"><path data-name="Path 111" d="m68.436 24.073-8-2.667a1.334 1.334 0 0 0-1.755 1.266v13.335a1.331 1.331 0 0 0 1.331 1.33 1.31 1.31 0 0 0 .422-.069l8-2.667a1.329 1.329 0 0 0 .912-1.264v-8a1.334 1.334 0 0 0-.91-1.264zm-1.755 8.306-5.334 1.778v-9.635l5.334 1.778z" fill="#f7931e"/></g></g><g data-name="Group 50"><g data-name="Group 49"><path data-name="Path 112" d="m26.548 55.335-1.339-1.34-3.911-15.643a1.334 1.334 0 0 0-1.292-1.011H9.335a1.333 1.333 0 0 0-1.3 1.639l5.334 22.672a1.336 1.336 0 0 0 1.3 1.028 1.265 1.265 0 0 0 .253-.025l10.015-1.934.04-.008a3.214 3.214 0 0 0 1.55-.845 3.2 3.2 0 0 0 .021-4.532zm-1.9 2.633a.533.533 0 0 1-.247.139l-8.731 1.687-4.656-19.786h7.943l3.75 14.993a1.335 1.335 0 0 0 .351.62l1.6 1.595a.528.528 0 0 1 .153.378.536.536 0 0 1-.158.374z" fill="#f7931e"/></g></g><g data-name="Group 52"><g data-name="Group 51"><path data-name="Rectangle 35" fill="#f7931e" d="M72.015 28.006h8.002v2.667h-8.002z"/></g></g><g data-name="Group 54"><g data-name="Group 53"><path data-name="Rectangle 36" fill="#f7931e" d="m71.326 16.197 6.667-4.002 1.373 2.287-6.668 4.002z"/></g></g><g data-name="Group 56"><g data-name="Group 55"><path data-name="Rectangle 37" fill="#f7931e" d="m71.338 42.485 1.372-2.287 6.668 4-1.372 2.288z"/></g></g><g data-name="Group 58"><g data-name="Group 57"><path data-name="Rectangle 38" fill="#f7931e" d="M50.677 6.668h2.667v45.343h-2.667z"/></g></g><g data-name="Group 60"><g data-name="Group 59"><path data-name="Rectangle 39" fill="#f7931e" d="M13.336 24.005h2.667v5.334h-2.667z"/></g></g><g data-name="Group 62"><g data-name="Group 61"><path data-name="Rectangle 40" fill="#f7931e" d="M8.002 24.005h2.667v5.334H8.002z"/></g></g></svg>